<?xml version="1.0" encoding="UTF-8"?>
<svg version="1.1" xmlns="http://www.w3.org/2000/svg" width="330" height="330">
<path d="M0 0 C0.78704994 -0.00297112 1.57409988 -0.00594224 2.38499981 -0.0090034 C5.00147433 -0.01761992 7.61790272 -0.01919265 10.23439026 -0.02069092 C12.11929419 -0.02532422 14.00419719 -0.03034956 15.88909912 -0.03573608 C20.99704161 -0.0488158 26.10497097 -0.05529678 31.21292758 -0.05974674 C34.41120054 -0.06268562 37.60946999 -0.06679202 40.80774117 -0.07125092 C50.83453238 -0.08491637 60.86131547 -0.09458676 70.88811535 -0.09845281 C82.42441014 -0.10292642 93.96058604 -0.12044597 105.49684471 -0.1494534 C114.4381768 -0.17114765 123.37947564 -0.18116126 132.32083374 -0.18249393 C137.64942607 -0.18353674 142.97790649 -0.18933186 148.30647087 -0.20731354 C153.32737449 -0.22392786 158.3480837 -0.22588566 163.3690052 -0.21717453 C165.19857941 -0.21641115 167.02816465 -0.22065293 168.85771179 -0.23063278 C193.44735109 -0.35675707 215.01038709 4.05539126 233.53736877 21.32794189 C250.92505208 39.77039276 254.09932778 61.70563 254.06202698 86.13336182 C254.06638186 88.0287089 254.07156758 89.92405422 254.07751465 91.81939697 C254.09083477 96.93745324 254.09149097 102.05543534 254.08895135 107.17350554 C254.08787653 111.46218778 254.09277819 115.75085532 254.09755677 120.03953439 C254.10862856 130.16798949 254.10910298 140.29640751 254.1030426 150.42486572 C254.09700908 160.83468099 254.10930345 171.24436087 254.13061267 181.65415305 C254.14829411 190.62529581 254.15421962 199.59639573 254.15097493 208.56755525 C254.14917178 213.91061069 254.15170034 219.25356963 254.16568947 224.59660912 C254.17836958 229.62742683 254.17622857 234.65803547 254.16327858 239.6888504 C254.16093496 241.52164853 254.16356663 243.35446184 254.1719017 245.18724251 C254.27582862 269.84250015 249.88257763 291.54335726 232.41236877 310.01544189 C217.46821925 324.1812503 197.85033706 330.30528627 177.57473755 330.28088379 C176.78768761 330.28385491 176.00063767 330.28682603 175.18973774 330.28988719 C172.57326322 330.29850371 169.95683483 330.30007644 167.34034729 330.30157471 C165.45544336 330.30620801 163.57054036 330.31123335 161.68563843 330.31661987 C156.57769594 330.32969959 151.46976657 330.33618057 146.36180997 330.34063053 C143.16353701 330.34356941 139.96526756 330.34767581 136.76699638 330.3521347 C126.74020517 330.36580016 116.71342208 330.37547055 106.6866222 330.3793366 C95.1503274 330.38381021 83.61415151 330.40132976 72.07789284 330.43033719 C63.13656075 330.45203144 54.19526191 330.46204505 45.25390381 330.46337771 C39.92531148 330.46442053 34.59683106 330.47021565 29.26826668 330.48819733 C24.24736306 330.50481165 19.22665385 330.50676945 14.20573235 330.49805832 C12.37615814 330.49729494 10.5465729 330.50153672 8.71702576 330.51151657 C-15.87261354 330.63764086 -37.43564954 326.22549252 -55.96263123 308.95294189 C-73.6132302 290.23162643 -76.52541116 267.9054811 -76.48728943 243.12579346 C-76.49164537 241.24015096 -76.49683143 239.35451023 -76.5027771 237.46887207 C-76.51608483 232.38186562 -76.5167549 227.29493384 -76.5142138 222.2079134 C-76.51313828 217.94403424 -76.51804233 213.68016983 -76.52281922 209.41629386 C-76.5338864 199.34679275 -76.53436783 189.27732895 -76.52830505 179.20782471 C-76.52226989 168.85990434 -76.53457114 158.51212011 -76.55587512 148.16422296 C-76.57355671 139.24401498 -76.57948211 130.32385008 -76.57623738 121.40362525 C-76.5744345 116.09188362 -76.57696024 110.78023907 -76.59095192 105.46851349 C-76.60363258 100.4680508 -76.60149053 95.46779845 -76.58854103 90.46733856 C-76.58619765 88.64582749 -76.58882819 86.82430113 -76.59716415 85.00280762 C-76.69971629 60.82609742 -72.70795663 39.01489494 -55.40013123 20.82794189 C-40.24122372 6.36439712 -20.68737115 -0.02489806 0 0 Z " fill="#BB3EDF" transform="translate(76.21263122558594,-0.14044189453125)"/>
<path d="M0 0 C22.65749073 19.1172578 39.16752237 45.7820682 42.4375 75.6875 C43.4902724 102.41713327 43.4902724 102.41713327 40.4375 114.6875 C40.26508789 115.39970703 40.09267578 116.11191406 39.91503906 116.84570312 C32.57713559 146.31780803 15.10461599 172.09574285 -10.66210938 188.54541016 C-29.20208957 199.6875 -29.20208957 199.6875 -36.5625 199.6875 C-36.61775226 198.33381959 -36.65584369 196.97943765 -36.6875 195.625 C-36.71070313 194.87089844 -36.73390625 194.11679687 -36.7578125 193.33984375 C-36.48936794 189.69436661 -36.03374426 187.07249643 -34.5625 183.6875 C-31.97605097 181.60137427 -29.11042233 180.24602082 -26.125 178.8125 C-18.38779448 174.80959998 -11.9895388 170.62828258 -5.5625 164.6875 C-4.799375 164.00429687 -4.03625 163.32109375 -3.25 162.6171875 C14.40392551 146.00533398 25.60776926 122.08640407 26.546875 97.86669922 C26.62689812 94.70228486 26.66727721 91.54034759 26.6875 88.375 C26.70151855 86.85374512 26.70151855 86.85374512 26.71582031 85.30175781 C26.68955949 79.14258552 25.96535035 73.63884789 24.4375 67.6875 C24.15960983 66.2513475 23.88798697 64.81395615 23.625 63.375 C18.33905418 40.18891945 1.28980776 18.84107159 -18.25 6 C-41.54245842 -8.62282472 -69.69147251 -13.58611536 -96.75952148 -7.92260742 C-123.29072915 -1.42309875 -145.51296593 15.63183031 -159.79052734 38.66894531 C-173.56529041 61.52590922 -177.27466624 89.34760025 -171.20507812 115.328125 C-166.56335801 132.3712797 -158.10428764 146.44043923 -146.5625 159.6875 C-146.02238281 160.31269531 -145.48226562 160.93789062 -144.92578125 161.58203125 C-136.70360437 170.42553132 -125.97452093 176.88680738 -115.109375 181.921875 C-111.83829931 184.18955324 -111.40286431 185.85273415 -110.5625 189.6875 C-110.30038562 191.30469629 -110.08582474 192.93092789 -109.9375 194.5625 C-109.86273438 195.34367188 -109.78796875 196.12484375 -109.7109375 196.9296875 C-109.66195312 197.50976562 -109.61296875 198.08984375 -109.5625 198.6875 C-112.88027407 199.82329781 -114.49984829 199.61275742 -117.65234375 198.1328125 C-118.4302124 197.77010254 -119.20808105 197.40739258 -120.00952148 197.03369141 C-120.83137939 196.63069824 -121.6532373 196.22770508 -122.5 195.8125 C-123.34957275 195.4004834 -124.19914551 194.9884668 -125.07446289 194.56396484 C-137.4409097 188.41991647 -147.76899946 180.34306391 -157.5625 170.6875 C-158.35398437 169.90890625 -159.14546875 169.1303125 -159.9609375 168.328125 C-170.80135238 156.99323506 -177.86221908 143.15375913 -183.5625 128.6875 C-184.05169922 127.46160156 -184.05169922 127.46160156 -184.55078125 126.2109375 C-185.33836271 124.05417596 -185.96974634 121.90566622 -186.5625 119.6875 C-186.83964844 118.74519531 -187.11679688 117.80289063 -187.40234375 116.83203125 C-192.11116952 97.9750285 -191.49854651 76.1961385 -185.5625 57.6875 C-185.24901611 56.67888916 -185.24901611 56.67888916 -184.92919922 55.64990234 C-175.23858137 25.25693086 -153.72022296 0.63762176 -125.67578125 -14.2734375 C-84.39353018 -35.27238829 -35.78151088 -28.48528101 0 0 Z " fill="#FDFAFE" transform="translate(238.5625,62.3125)"/>
<path d="M0 0 C0.9701001 0.00563965 1.9402002 0.0112793 2.93969727 0.01708984 C10.38798587 0.14273112 17.15497733 0.93240949 24.25 3.3125 C25.44625 3.70308594 26.6425 4.09367187 27.875 4.49609375 C47.36226401 11.32968118 63.28441943 25.75597435 72.24511719 44.38085938 C80.64794733 63.65740593 82.31312064 85.01895301 74.5625 104.8125 C68.25697932 120.00534449 59.1677211 133.22917962 45.25 142.3125 C44.59 142.3125 43.93 142.3125 43.25 142.3125 C41.86465969 126.61197644 41.86465969 126.61197644 44.97265625 121.453125 C46.52588939 119.90788448 48.11254513 118.3956999 49.7265625 116.9140625 C59.30634793 107.03768929 63.16171076 91.72129377 63.625 78.375 C63.0408475 60.78032664 56.86052604 44.78825706 44.25 32.3125 C29.00909582 19.34850075 11.82806973 15.23104472 -7.75 16.3125 C-21.96674676 18.07946168 -36.60865498 26.01932514 -45.9296875 36.84375 C-57.41745289 51.92957021 -62.31817217 67.28229557 -60.46875 86.1875 C-58.54384562 98.9214828 -53.19604614 113.38195483 -42.8125 121.5 C-40.10867526 123.93827053 -39.53876733 125.77033704 -39.3125 129.296875 C-39.24083125 133.3196731 -39.44668127 137.30195241 -39.75 141.3125 C-40.74 141.6425 -41.73 141.9725 -42.75 142.3125 C-60.99900212 131.34333447 -70.28585326 112.23418712 -75.49609375 92.484375 C-79.95147198 71.9589084 -74.93100091 51.75243077 -63.75 34.3125 C-51.73555511 16.98569795 -33.7915584 5.14190487 -13.23706055 0.72045898 C-8.83154665 -0.00218887 -4.45574643 -0.02722373 0 0 Z " fill="#FDFAFE" transform="translate(163.75,74.6875)"/>
<path d="M0 0 C3.72330082 3.06118959 5.82580923 6.71478317 6.69140625 11.390625 C7.6397463 26.14460776 5.55968194 40.78677368 3.69140625 55.390625 C3.53623535 56.62570801 3.38106445 57.86079102 3.22119141 59.13330078 C2.74831409 62.84642406 2.25530072 66.55625288 1.75390625 70.265625 C1.53589355 71.94748901 1.53589355 71.94748901 1.31347656 73.66333008 C-1.64936026 94.71481817 -1.64936026 94.71481817 -7.30859375 99.578125 C-8.29859375 100.17625 -9.28859375 100.774375 -10.30859375 101.390625 C-10.86933594 101.75027344 -11.43007812 102.10992187 -12.0078125 102.48046875 C-17.79316185 104.76907044 -26.8688348 104.39911217 -32.7734375 102.66796875 C-37.55124107 100.08565479 -40.66481028 96.23479639 -42.43359375 91.16796875 C-47.39717348 69.38583093 -50.47342515 46.99680798 -50.60375977 24.64575195 C-50.61539166 23.25827936 -50.63601575 21.87085522 -50.6652832 20.48364258 C-50.70803123 18.44582734 -50.72411965 16.40930174 -50.734375 14.37109375 C-50.74895752 13.17379639 -50.76354004 11.97649902 -50.77856445 10.74291992 C-50.08657703 5.80698261 -47.87965335 2.64106019 -44.01171875 -0.4375 C-29.85797756 -8.64126082 -14.00355947 -9.39228635 0 0 Z " fill="#FEFDFE" transform="translate(187.30859375,187.609375)"/>
<path d="M0 0 C7.93045357 3.62477802 13.09743051 8.50210615 16.8671875 16.375 C19.31536399 23.85429149 18.44967072 31.3705334 15.15625 38.4140625 C11.32238704 45.21984265 6.62832879 50.07105847 -0.921875 52.5 C-9.14916383 54.16180337 -16.72150808 53.83309603 -24.05859375 49.5859375 C-30.65149961 44.81216384 -34.86221245 39.04733859 -36.28125 30.9765625 C-37.30634479 21.27660305 -35.48450893 15.64416836 -30.09375 7.7890625 C-26.55201479 4.24732729 -22.74226872 2.17639688 -18.28125 -0.0234375 C-12.9117556 -2.7081847 -5.5328913 -1.72573514 0 0 Z " fill="#FEFCFE" transform="translate(174.28125,117.0234375)"/>
</svg>
