<svg width="40" height="40" viewBox="0 0 40 40" fill="none" xmlns="http://www.w3.org/2000/svg">
<circle cx="20" cy="20" r="20" fill="#F5E8DE"/>
<path d="M18.75 33C18.75 33.6904 19.3096 34.25 20 34.25C20.6904 34.25 21.25 33.6904 21.25 33H20H18.75ZM20.8839 6.11612C20.3957 5.62796 19.6043 5.62796 19.1161 6.11612L11.1612 14.0711C10.673 14.5592 10.673 15.3507 11.1612 15.8388C11.6493 16.327 12.4408 16.327 12.9289 15.8388L20 8.76777L27.0711 15.8388C27.5592 16.327 28.3507 16.327 28.8388 15.8388C29.327 15.3507 29.327 14.5592 28.8388 14.0711L20.8839 6.11612ZM20 33H21.25L21.25 7H20H18.75L18.75 33H20Z" fill="#763F81"/>
</svg>
