<svg width="181" height="149" viewBox="0 0 181 149" fill="none" xmlns="http://www.w3.org/2000/svg">
<mask id="mask0_728_21931" style="mask-type:luminance" maskUnits="userSpaceOnUse" x="0" y="0" width="66" height="63">
<path d="M65.8183 0H0V62.0362H65.8183V0Z" fill="white"/>
</mask>
<g mask="url(#mask0_728_21931)">
<path d="M15.8352 42.4672C15.3975 42.5646 14.8877 42.7217 14.3059 42.9408C13.723 43.1588 13.1944 43.4189 12.719 43.7198C12.2458 44.023 11.9255 44.3328 11.757 44.6493C11.4645 45.1827 11.4878 45.6253 11.828 45.9771C12.1671 46.3279 12.6536 46.5935 13.2864 46.7738C13.918 46.9564 14.4888 47.0483 14.9974 47.0483H15.8352V42.4672ZM17.4 46.8314C17.8876 46.8314 18.5315 46.7097 19.3327 46.4684C20.1328 46.2261 21.0005 45.9107 21.9348 45.5213C22.8712 45.134 23.7755 44.729 24.6476 44.3041C25.522 43.8792 26.2623 43.472 26.8685 43.0825C27.4769 42.6952 27.867 42.3931 28.0387 42.1751C27.6985 42.1751 27.3162 42.1264 26.8906 42.0291C26.4651 41.9339 26.0816 41.862 25.7425 41.8122C25.1364 41.7148 24.5723 41.6484 24.0492 41.613C23.5261 41.5776 23.0219 41.5599 22.5376 41.5599C21.8816 41.5599 21.2133 41.5953 20.534 41.6661C19.8536 41.7392 19.1022 41.8365 18.2777 41.9582C17.8876 42.0047 17.6493 42.0777 17.564 42.1751C17.4809 42.2725 17.4632 42.4186 17.5108 42.6133C17.5607 42.8081 17.5607 43.1101 17.5108 43.5207L17.4 46.8314ZM29.5326 41.2324C29.5326 41.2324 29.6345 41.1527 29.8384 40.9934C30.0446 40.8362 30.264 40.6725 30.4945 40.5021C30.7272 40.3339 30.868 40.2376 30.9156 40.2144L32.7375 38.6475C32.8816 38.5258 32.9902 38.4351 33.0611 38.3731C33.1342 38.3134 33.2451 38.2359 33.3936 38.1385C33.5853 37.9936 33.8568 37.738 34.2092 37.3728C34.5638 37.0099 34.9406 36.6038 35.3396 36.1556C35.7407 35.7075 36.1175 35.2837 36.4699 34.8853C36.8212 34.4848 37.0706 34.186 37.2191 33.9913C37.3133 33.8707 37.3975 33.7689 37.4717 33.6859C37.5449 33.6007 37.6313 33.4978 37.7288 33.376C38.2131 32.7453 38.6919 32.0604 39.1651 31.3223C39.6372 30.5821 40.0694 29.8728 40.4594 29.1934C41.1155 28.0548 41.6973 26.7458 42.206 25.2674C42.7169 23.7869 43.0682 22.2643 43.261 20.6997C43.456 19.1362 43.4383 17.6214 43.2078 16.1541C42.9773 14.688 42.4553 13.3734 41.643 12.2105C40.8296 11.0453 39.6582 10.1468 38.1278 9.51496C37.3742 9.17637 36.5963 8.94621 35.7961 8.82449C34.9949 8.70388 34.1937 8.64302 33.3936 8.64302C32.2765 8.64302 31.1772 8.7404 30.0956 8.93514C29.0139 9.12989 27.9767 9.37222 26.9837 9.66102L23.34 10.9357C22.5864 11.2754 22.0334 11.5244 21.6821 11.6838C21.3297 11.8409 21.0992 12.0102 20.9906 12.1928C20.8809 12.3731 20.7778 12.6929 20.6803 13.1532C20.4143 14.6083 20.1583 15.9483 19.9134 17.1721C19.6707 18.397 19.428 19.7614 19.1864 21.2662C18.967 22.5974 18.803 23.84 18.6944 24.993C18.5847 26.1438 18.4461 27.3256 18.2777 28.5383L17.7679 36.1379C17.7912 37.4481 17.7602 38.4417 17.6748 39.1211C17.5884 39.7994 17.5341 40.2542 17.5108 40.4844C17.4864 40.7145 17.5596 40.8296 17.728 40.8296C17.8256 40.8296 17.9463 40.8119 18.0915 40.7765C18.2389 40.7411 18.434 40.7101 18.6766 40.6835C19.3083 40.5884 19.9156 40.522 20.4985 40.4844C21.0803 40.4489 21.6389 40.4312 22.1741 40.4312C23.146 40.4312 24.0991 40.4799 25.0333 40.5773C25.9664 40.6747 26.9682 40.8185 28.0387 41.0111C28.3047 41.0609 28.5407 41.1095 28.748 41.1571C28.9541 41.2069 29.2156 41.2324 29.5326 41.2324ZM21.4073 10.2099C21.6754 10.2099 21.9192 10.1501 22.1387 10.0284C22.357 9.90446 22.5875 9.79602 22.8302 9.70086L26.9837 8.13402C27.9767 7.84522 29.0139 7.60953 30.0956 7.42585C31.1772 7.24327 32.2643 7.15143 33.3581 7.15143C34.9362 7.15143 36.4766 7.38933 37.9815 7.86403C39.4887 8.33652 40.8008 9.14206 41.9178 10.2807C43.0083 11.3728 43.7951 12.6165 44.2805 14.0119C44.7681 15.405 45.0175 16.8601 45.0297 18.376C45.0407 19.8897 44.8767 21.3625 44.5376 22.7933C43.9314 25.3637 43.0637 27.673 41.9356 29.7201C40.8063 31.7683 39.4155 33.7633 37.7643 35.7042L36.6694 36.9036C36.501 37.1216 36.2217 37.4303 35.8316 37.8287C35.4437 38.2293 35.0559 38.6176 34.6658 38.9928C34.2779 39.3701 33.9876 39.6312 33.7925 39.7762C33.5731 39.9466 33.3603 40.117 33.1542 40.2852C32.947 40.4556 32.7353 40.6371 32.5203 40.8296C32.2033 41.0476 31.9485 41.229 31.7534 41.374C31.5584 41.5212 31.4254 41.7159 31.3545 41.9582C31.7412 42.0313 32.1047 42.2017 32.4449 42.4672C32.784 42.7328 32.9968 43.0227 33.0833 43.3392C33.1686 43.6545 33.0168 43.9456 32.6267 44.2111C32.384 44.0429 32.2322 43.8792 32.1701 43.7198C32.1103 43.5627 31.9108 43.4012 31.5717 43.233C30.9389 42.9165 30.4901 42.7594 30.2241 42.7594C29.9814 42.7594 29.7564 42.8368 29.5503 42.994C29.3431 43.1533 29.0328 43.3657 28.6194 43.6313C27.939 44.0673 27.1566 44.5276 26.27 45.0123C25.3835 45.4991 24.4792 45.9473 23.5572 46.3578C22.6351 46.7705 21.7852 47.098 21.0083 47.3404C20.7656 47.4378 20.4143 47.5528 19.9533 47.6856C19.4923 47.8184 19.0235 47.9335 18.5481 48.0308C18.0749 48.1282 17.6804 48.188 17.3645 48.2123L17.5108 51.1247C17.5341 51.2453 17.4853 51.3604 17.3645 51.4699C17.2426 51.5784 17.0986 51.6337 16.9301 51.6337C16.7816 51.6337 16.6353 51.5728 16.4913 51.4522C16.3461 51.3305 16.2131 51.1125 16.0923 50.7972C16.0181 50.5283 15.9749 50.297 15.9638 50.1023C15.9516 49.9097 15.9339 49.6685 15.9106 49.3764C15.8596 48.9161 15.8042 48.6195 15.7421 48.4867C15.6823 48.354 15.5803 48.2876 15.4363 48.2876C15.3387 48.2876 15.2346 48.2931 15.126 48.3053C15.0163 48.3163 14.8755 48.323 14.7049 48.323C14.1729 48.323 13.5656 48.2134 12.883 47.9954C12.2025 47.7763 11.6152 47.4555 11.1187 47.0305C10.6222 46.6056 10.374 46.0789 10.374 45.4504C10.374 44.6504 10.5912 44.0075 11.0256 43.5207C11.4623 43.036 11.9975 42.6542 12.6303 42.3743C13.262 42.0966 13.8815 41.8609 14.4876 41.6661C15.0961 41.4736 15.5826 41.2921 15.946 41.1217C15.946 40.4423 15.9638 39.8127 15.9992 39.2318C16.0347 38.6497 16.0524 38.0434 16.0524 37.4126C16.0524 36.8306 16.0945 36.2132 16.181 35.5581C16.2663 34.903 16.3095 34.2856 16.3095 33.7036C16.3095 33.1227 16.3383 32.3603 16.3982 31.4153C16.4602 30.4681 16.5456 29.4313 16.6553 28.3037C16.7639 27.174 16.8791 26.0453 17.001 24.9178C17.1218 23.7913 17.2426 22.7612 17.3645 21.8284C17.4853 20.8967 17.595 20.163 17.6926 19.6286L19.0047 13.2285C18.5902 13.4475 18.0616 13.7751 17.4177 14.2111C16.7761 14.6448 16.1023 15.1295 15.3964 15.6628C14.6927 16.1973 14.0311 16.7251 13.4105 17.2474C12.7921 17.7674 12.3023 18.2078 11.9388 18.5708L9.53621 21.1202C8.78263 21.9678 7.96256 22.9969 7.076 24.2096C6.18944 25.4224 5.34499 26.7081 4.54487 28.0647C3.74364 29.4224 3.08205 30.7624 2.55898 32.0836C2.0359 33.4059 1.77437 34.6131 1.77437 35.7042C1.77437 36.2851 1.8464 36.6967 1.99158 36.9391C2.13897 37.1803 2.30852 37.3308 2.50135 37.3905C2.69639 37.4525 2.87149 37.5012 3.02885 37.5366C3.18843 37.5742 3.2926 37.7026 3.34358 37.9216C3.41451 38.2602 3.21946 38.4306 2.75845 38.4306C2.37058 38.4306 1.92176 38.2182 1.41088 37.7933C0.903324 37.3684 0.648438 36.6713 0.648438 35.7042C0.648438 34.8787 0.789179 33.9868 1.06955 33.0308C1.34771 32.0726 1.6968 31.1143 2.12013 30.1583C2.54568 29.2 3.00004 28.2905 3.48543 27.4318C3.97304 26.5709 4.42297 25.8362 4.83744 25.2276C5.63756 24.0149 6.40776 22.9548 7.14693 22.0452C7.88831 21.1368 8.65962 20.2593 9.46085 19.4117C10.261 18.5619 11.1597 17.6402 12.156 16.6454C13.078 15.8465 14.0111 15.0697 14.9575 14.3173C15.9061 13.5648 16.9035 12.8744 17.9497 12.2459C18.3132 12.0511 18.6523 11.8641 18.9692 11.6838C19.2851 11.5012 19.4901 11.2887 19.5854 11.0464C19.756 10.7078 19.8968 10.3803 20.0065 10.0638C20.1151 9.74844 20.3888 9.54152 20.8266 9.44415C21.0681 9.56586 21.2255 9.64553 21.2964 9.68315C21.3696 9.71856 21.4073 9.8945 21.4073 10.2099Z" fill="#561269"/>
<path d="M45.5581 29.3395C46.0191 29.0983 46.5289 28.7642 47.0874 28.3392C47.646 27.9143 47.9496 27.412 48.0006 26.8299C47.6836 26.8775 47.349 27.0468 46.9943 27.3389C46.6419 27.6289 46.3394 27.9564 46.0856 28.3215C45.8307 28.6845 45.6556 29.0242 45.5581 29.3395ZM43.918 30.2115C43.918 29.6073 44.1174 28.9534 44.5164 28.2507C44.9176 27.5459 45.4163 26.945 46.0103 26.4493C46.6065 25.9514 47.196 25.7013 47.7789 25.7013C48.5791 25.7013 48.998 26.0056 49.0334 26.6131C49.0711 27.2183 48.8118 27.8723 48.2533 28.5738C47.9607 28.8903 47.5229 29.2543 46.9411 29.6671C46.3582 30.0776 45.7886 30.3078 45.2301 30.3575C45.2301 30.7448 45.2412 31.0901 45.2655 31.3933C45.2888 31.6975 45.4584 32.0074 45.7753 32.3227C46.0912 32.6359 46.4912 32.7919 46.9766 32.7919C47.6083 32.7919 48.2643 32.5927 48.9448 32.1944C49.6241 31.7938 50.1461 31.4596 50.5095 31.1941C50.6569 31.0735 50.7722 30.9761 50.8553 30.902C50.9406 30.8289 51.0437 30.7448 51.1656 30.6497C51.6765 30.2602 51.999 29.9758 52.132 29.7954C52.2649 29.6129 52.3802 29.4922 52.4777 29.4325C52.5752 29.3705 52.8057 29.3395 53.1692 29.3395C53.2191 29.6051 53.2379 29.7866 53.2269 29.884C53.2147 29.9813 53.1227 30.1274 52.952 30.3221C52.5143 30.7559 51.9613 31.2516 51.2942 31.8093C50.6259 32.367 49.9089 32.8528 49.1442 33.2655C48.3818 33.6793 47.6238 33.8851 46.8702 33.8851C46.4801 33.8851 46.1089 33.8188 45.7576 33.686C45.4052 33.551 45.0716 33.3264 44.7558 33.0132C44.318 32.5772 44.0687 32.128 44.0066 31.6677C43.9468 31.2051 43.918 30.7194 43.918 30.2115Z" fill="#561269"/>
<path d="M41.5508 19.6993C41.5508 19.384 41.8422 19.0509 42.424 18.699C43.007 18.3483 43.7406 18.003 44.6271 17.6633C45.5137 17.3247 46.449 17.0038 47.4331 16.7029C48.4172 16.3997 49.3237 16.1385 50.1504 15.9194C50.9749 15.7015 51.5933 15.5322 52.0033 15.4104C52.5142 15.2633 52.8733 15.1781 53.0805 15.1537C53.2866 15.1305 53.4196 15.0519 53.4795 14.9191C53.5415 14.7842 53.608 14.5108 53.6789 14.1003C53.874 13.1067 54.0978 12.4217 54.3527 12.0466C54.6098 11.6693 54.8592 11.4801 55.1019 11.4801C55.2936 11.4801 55.4565 11.5841 55.5895 11.7899C55.7247 11.9968 55.7934 12.2447 55.7934 12.5335C55.7934 12.7526 55.7801 12.8433 55.7535 12.8079C55.7291 12.7725 55.7313 12.8522 55.7579 13.0469C55.7579 13.0945 55.7635 13.1553 55.7756 13.2284C55.7867 13.2992 55.7934 13.3955 55.7934 13.5161C55.7934 13.8325 55.7324 13.9897 55.6116 13.9897C55.4897 13.9897 55.3689 14.0096 55.2481 14.0472C55.1262 14.0826 55.0664 14.294 55.0664 14.6801C55.3556 14.6801 55.6759 14.6392 56.0283 14.5562C56.3796 14.471 56.6899 14.4168 56.9592 14.3924C58.0253 14.1977 59.0925 14.0229 60.1597 13.8657C61.2291 13.7064 62.3229 13.6267 63.44 13.6267C64.0251 13.6267 64.4506 13.7484 64.7166 13.9897C64.9826 14.232 65.0779 14.4754 65.0047 14.72C64.9338 14.9623 64.6679 15.0829 64.2068 15.0829C64.1592 14.8882 64.1282 14.7974 64.1138 14.8085C64.1016 14.8207 63.9863 14.803 63.768 14.7554C63.6727 14.7288 63.4799 14.7155 63.1873 14.7155C62.6753 14.7155 62.0004 14.7709 61.1615 14.8793C60.3248 14.9889 59.4571 15.1172 58.5594 15.2644C57.6607 15.4093 56.8595 15.5477 56.1569 15.6804C55.4532 15.8132 54.9921 15.9051 54.7738 15.9549L54.0424 23.4084C54.018 23.5799 54.0125 23.7625 54.0247 23.9572C54.0358 24.1498 54.0424 24.3423 54.0424 24.5371C54.0424 24.7794 54.0247 24.9376 53.9892 25.0106C53.9538 25.0848 53.936 25.2541 53.936 25.5196C53.936 26.0541 53.9471 26.666 53.9715 27.3565C53.9948 28.0469 53.9826 28.5869 53.936 28.9764C53.9117 29.1955 53.8928 29.626 53.8784 30.2688C53.8662 30.9095 53.854 31.6542 53.8429 32.504C53.8308 33.3516 53.8252 34.2059 53.8252 35.0667C53.8252 35.9276 53.8252 36.7099 53.8252 37.4126C53.8252 38.1141 53.8363 38.6231 53.8607 38.9396C53.8607 39.2051 53.8895 39.6101 53.9493 40.1567C54.0114 40.7023 54.0247 41.1936 53.9892 41.6306C53.9538 42.0666 53.7776 42.2857 53.4617 42.2857C53.0007 42.2857 52.7214 42.0301 52.6239 41.52C52.5264 41.0121 52.4776 40.5396 52.4776 40.1036C52.4034 39.2295 52.3602 38.2104 52.3491 37.0452C52.3369 35.8833 52.3369 34.7204 52.3491 33.5574C52.3602 32.3923 52.3668 31.3743 52.3668 30.5034L52.4776 28.7905C52.4776 28.4519 52.4776 27.9308 52.4776 27.2281C52.4776 26.5266 52.4887 25.7808 52.5131 24.9929C52.5397 24.2051 52.5641 23.4836 52.5885 22.8286C52.6117 22.1735 52.6472 21.7132 52.6948 21.4476C52.7447 21.2031 52.7757 20.911 52.7879 20.5713C52.799 20.2327 52.8168 19.9417 52.8411 19.6993L53.1692 16.3178C53.0716 16.3421 52.8589 16.3908 52.5308 16.4639C52.205 16.538 51.9457 16.5989 51.7507 16.6453C50.5605 16.9374 49.4257 17.2473 48.3463 17.5748C47.2647 17.9001 46.1542 18.2808 45.0128 18.7167C44.7945 18.8141 44.5939 18.9181 44.4099 19.0266C44.2271 19.1361 44.0265 19.239 43.8071 19.3364C43.5178 19.4581 43.3306 19.5433 43.2441 19.5931C43.1588 19.6407 43.1156 19.7015 43.1156 19.7746C43.1156 19.8454 43.0557 20.0025 42.9338 20.2437C42.8363 20.2703 42.741 20.2902 42.6457 20.3013C42.5482 20.3135 42.4396 20.319 42.3177 20.319C42.1226 20.319 41.9475 20.2769 41.7902 20.1906C41.6306 20.1054 41.5508 19.9417 41.5508 19.6993Z" fill="#561269"/>
</g>
<mask id="mask1_728_21931" style="mask-type:luminance" maskUnits="userSpaceOnUse" x="32" y="35" width="149" height="52">
<path d="M181 35.1256H32.3418V86.964H181V35.1256Z" fill="white"/>
</mask>
<g mask="url(#mask1_728_21931)">
<path d="M32.625 48.7575C32.625 46.5832 33.1259 44.7995 34.1277 43.4064C35.1318 42.0144 36.4162 40.9355 37.9798 40.1709C39.5457 39.4074 41.1958 38.8807 42.9313 38.5908C44.6656 38.302 46.2647 38.157 47.7276 38.157C48.6141 38.157 49.7112 38.2002 51.0211 38.2854C52.3299 38.3717 53.6897 38.5587 55.0993 38.8475C56.5112 39.1374 57.8388 39.5623 59.08 40.1222C60.3234 40.6799 61.3285 41.4357 62.0943 42.3884C62.8589 43.3389 63.2424 44.5107 63.2424 45.9027C63.2424 46.9893 62.9864 47.8801 62.4755 48.5761C61.9635 49.2732 61.3163 49.7833 60.5339 50.1075C59.7538 50.4295 58.9559 50.6065 58.1402 50.6386C57.493 50.6386 56.7683 50.5457 55.9681 50.3598C55.1702 50.1739 54.4222 49.8619 53.7251 49.4215C53.027 48.9788 52.4906 48.4167 52.116 47.7351C52.9993 47.3965 53.6021 46.8709 53.9246 46.1594C54.2493 45.4457 54.43 44.7154 54.4654 43.9685C54.4976 43.1873 54.2238 42.4138 53.6454 41.6492C53.0691 40.8857 52.2535 40.2572 51.1984 39.7637C50.1434 39.2713 48.9178 39.0246 47.5237 39.0246C45.9921 39.0246 44.6312 39.3233 43.441 39.9186C42.2497 40.5117 41.331 41.2763 40.6838 42.2113C40.0389 43.1441 39.7419 44.1456 39.7928 45.2167C39.846 46.2856 40.3392 47.2958 41.2734 48.2485C42.2098 49.199 43.6638 49.9791 45.6353 50.5899C46.9973 51.0326 48.4778 51.4752 50.0769 51.9178C51.675 52.3582 53.2475 52.8672 54.7935 53.4448C56.3416 54.0202 57.7546 54.7416 59.0312 55.6091C60.3079 56.4744 61.3285 57.5279 62.0943 58.7694C62.8589 60.0087 63.2424 61.5113 63.2424 63.2751C63.2424 65.4506 62.7393 67.2254 61.7352 68.5997C60.7301 69.9751 59.4368 71.0451 57.8565 71.8086C56.2751 72.5733 54.6172 73.1 52.8829 73.3888C51.1475 73.6787 49.565 73.8225 48.1354 73.8225C47.251 73.8225 46.155 73.7805 44.8462 73.6942C43.5363 73.609 42.1755 73.4231 40.7636 73.1365C39.3507 72.8477 38.0242 72.4228 36.783 71.8618C35.5418 71.3019 34.5378 70.555 33.7731 69.6222C33.0073 68.6871 32.625 67.5231 32.625 66.13C32.625 64.4658 33.1592 63.2608 34.2297 62.5138C35.3024 61.7647 36.4682 61.3741 37.7272 61.3409C38.3743 61.3055 39.0969 61.3896 39.8948 61.5932C40.6949 61.7968 41.4518 62.1111 42.1644 62.536C42.8792 62.9609 43.4067 63.5307 43.7469 64.2445C42.898 64.5842 42.3029 65.1197 41.9605 65.8511C41.6203 66.5803 41.4341 67.3184 41.402 68.0642C41.402 68.8465 41.6823 69.6199 42.2442 70.3834C42.8049 71.1481 43.6117 71.7766 44.6645 72.269C45.7195 72.7625 46.9441 73.0081 48.3393 73.0081C49.8697 73.0081 51.2306 72.7116 52.4219 72.1185C53.6121 71.5232 54.5319 70.7586 55.1791 69.8258C55.8263 68.8907 56.1233 67.8893 56.0701 66.8204C56.0191 65.7493 55.526 64.7302 54.5895 63.762C53.6553 62.7949 52.1847 62.0037 50.1789 61.3896C48.8158 60.9503 47.3441 60.5177 45.7638 60.0928C44.1824 59.6679 42.6176 59.1589 41.0695 58.5658C39.5202 57.9705 38.1084 57.2468 36.8317 56.397C35.5573 55.5472 34.5378 54.5026 33.7731 53.2633C33.0073 52.024 32.625 50.5224 32.625 48.7575Z" fill="#561269"/>
<path d="M70.5832 73.8224H62.9277V72.9549C63.6071 72.9549 64.2022 72.7446 64.7142 72.3219C65.225 71.897 65.481 71.0384 65.481 69.746V42.2333C65.481 40.9442 65.225 40.0867 64.7142 39.6618C64.2022 39.2369 63.6071 39.0244 62.9277 39.0244V38.1569C64.6299 38.0894 66.4164 37.8095 68.287 37.3159C70.1576 36.8235 71.7723 36.3057 73.132 35.7624V57.6716C74.1538 56.5186 75.1911 55.3811 76.2439 54.259C77.2989 53.1381 78.3107 52.1456 79.2803 51.2803C80.2489 50.4128 81.0911 49.7754 81.807 49.3682C82.3855 49.0617 82.9906 48.8149 83.6201 48.6291C84.2495 48.4409 84.9034 48.3458 85.5838 48.3458C87.0466 48.3458 88.3122 48.7552 89.3827 49.5718C90.4554 50.3862 90.9918 51.7616 90.9918 53.6969C90.9918 55.1929 90.5408 56.3825 89.6398 57.2644C88.7377 58.1474 87.624 58.6221 86.2975 58.6896C85.3101 58.725 84.3914 58.4539 83.5403 57.8752C82.6914 57.2976 82.1317 56.4986 81.8602 55.4806C82.6072 55.4131 83.1081 55.1077 83.363 54.5644C83.6167 54.0222 83.66 53.5132 83.4915 53.0374C83.3552 52.6634 83.066 52.3492 82.6227 52.0947C82.1816 51.838 81.6209 51.8114 80.9382 52.015C80.2932 52.2186 79.5463 52.6612 78.6952 53.3428L88.1858 69.8478C88.6291 70.5626 89.0879 71.2586 89.5645 71.9369C90.0399 72.6163 90.7037 72.9549 91.5548 72.9549V73.8224H83.2344C82.5894 73.8224 82.0464 73.5944 81.6031 73.1363C81.1599 72.676 80.752 72.1582 80.3797 71.5828L73.132 59.0481V70.6135C73.132 71.8705 72.8761 72.7203 72.3652 73.1629C71.8565 73.6033 71.2625 73.8224 70.5832 73.8224Z" fill="#561269"/>
<path d="M96.6987 40.6534C97.7538 40.6534 98.6547 41.0285 99.4028 41.7776C100.153 42.5245 100.529 43.4241 100.529 44.4775C100.529 45.5309 100.153 46.4316 99.4028 47.1774C98.6547 47.9244 97.7538 48.2972 96.6987 48.2972C95.646 48.2972 94.745 47.9244 93.9947 47.1774C93.2467 46.4316 92.8732 45.5309 92.8732 44.4775C92.8732 43.4241 93.2467 42.5245 93.9947 41.7776C94.745 41.0285 95.646 40.6534 96.6987 40.6534ZM92.8732 74.9423V54.8169C92.8732 53.5278 92.6084 52.6636 92.0798 52.2232C91.5534 51.7806 90.9505 51.5593 90.2712 51.5593V50.7449C91.9734 50.6741 93.7664 50.3941 95.6526 49.9039C97.541 49.4115 99.1656 48.8926 100.529 48.3459V70.8172C100.529 73.6355 100.145 76.029 99.3806 78.0008C98.6148 79.9715 97.347 81.4664 95.5772 82.4844C93.8097 83.5024 91.4115 84.0114 88.3828 84.0114C87.5672 84.0114 86.6662 83.9594 85.6788 83.8565C84.6925 83.7558 83.7228 83.5611 82.7709 83.2723C81.82 82.9824 80.9789 82.5574 80.2486 81.9975C79.5161 81.4399 79.0141 80.7018 78.7415 79.7845C78.5021 78.9015 78.5276 78.0273 78.8168 77.1598C79.1072 76.2923 79.6435 75.5775 80.4259 75.0176C81.2061 74.4599 82.1924 74.2143 83.3826 74.2829C84.063 74.2829 84.7257 74.4179 85.3729 74.6901C86.0201 74.9612 86.5476 75.4027 86.9554 76.0135C85.865 76.6597 85.2355 77.6268 85.0671 78.917C84.8632 80.0025 85.1014 80.9795 85.7807 81.8471C86.4612 82.7146 87.3799 83.1638 88.538 83.197C89.5575 83.197 90.3643 82.916 90.9583 82.3561C91.5545 81.7951 91.9889 81.0813 92.2615 80.2138C92.533 79.3485 92.7026 78.4401 92.7713 77.4874C92.8389 76.5368 92.8732 75.6881 92.8732 74.9423Z" fill="#561269"/>
<path d="M102.874 66.4838V54.8166C102.874 53.5275 102.618 52.67 102.107 52.2451C101.595 51.8202 101 51.6077 100.32 51.6077V50.7446C102.023 50.6738 103.809 50.3938 105.68 49.9037C107.55 49.4113 109.165 48.8923 110.525 48.3457V65.1604C110.525 67.0636 110.966 68.3892 111.85 69.135C112.737 69.8819 113.85 70.1464 115.192 69.9273C116.537 69.706 117.856 69.1373 119.151 68.2188C119.422 68.0152 119.694 67.8205 119.966 67.6346C120.238 67.4465 120.492 67.2495 120.729 67.0459V54.8166C120.729 53.5275 120.473 52.67 119.962 52.2451C119.453 51.8202 118.859 51.6077 118.18 51.6077V50.7446C119.879 50.6738 121.664 50.3938 123.535 49.9037C125.408 49.4113 127.025 48.8923 128.384 48.3457V69.7458C128.384 71.0383 128.647 71.8969 129.173 72.3218C129.702 72.7445 130.306 72.9548 130.986 72.9548V73.8223H123.331C122.651 73.8223 122.047 73.6032 121.518 73.1628C120.992 72.7202 120.729 71.8704 120.729 70.6134V68.0639C119.709 68.8108 118.714 69.5245 117.746 70.2062C116.776 70.8856 115.815 71.4798 114.864 71.9899C113.809 72.5332 112.763 72.9747 111.726 73.3133C110.689 73.653 109.642 73.8223 108.587 73.8223C106.921 73.8223 105.686 73.508 104.886 72.8795C104.088 72.251 103.553 71.3769 103.281 70.2548C103.009 69.1339 102.874 67.8769 102.874 66.4838Z" fill="#561269"/>
<path d="M129.755 73.8224V72.9549C130.434 72.9549 131.029 72.7446 131.541 72.3219C132.052 71.897 132.308 71.0384 132.308 69.746V42.2333C132.308 40.9442 132.052 40.0867 131.541 39.6618C131.029 39.2369 130.434 39.0244 129.755 39.0244V38.1569C131.457 38.0894 133.243 37.8095 135.114 37.3159C136.985 36.8235 138.599 36.3057 139.959 35.7624V69.746C139.959 71.0384 140.222 71.897 140.748 72.3219C141.277 72.7446 141.881 72.9549 142.561 72.9549V73.8224H129.755Z" fill="#561269"/>
<path d="M143.786 49.2133H141.232V48.3458C142.387 48.2783 143.645 47.9651 145.005 47.4074C146.367 46.8475 147.643 46.0918 148.835 45.1413C150.025 44.1886 150.893 43.1008 151.437 41.8792V48.3458H155.519V49.2133H151.437V65.9749C151.437 69.643 152.9 71.3249 155.825 71.0207V71.9369L155.776 71.99C154.721 72.5333 153.675 72.9748 152.638 73.3134C151.601 73.6531 150.555 73.8224 149.5 73.8224C147.833 73.8224 146.598 73.5081 145.798 72.8796C145 72.2511 144.465 71.377 144.194 70.2549C143.921 69.134 143.786 67.877 143.786 66.4839V49.2133Z" fill="#561269"/>
<path d="M180.011 56.0426C180.011 54.6152 179.61 53.4091 178.81 52.4265C178.009 51.4417 176.988 50.6516 175.747 50.0585C174.506 49.4632 173.212 49.0295 171.868 48.7573C170.526 48.4829 169.294 48.3456 168.171 48.3456C165.689 48.3456 163.408 48.8723 161.331 49.9258C159.257 50.9792 157.599 52.4575 156.358 54.3607C155.117 56.2617 154.496 58.5024 154.496 61.0839C154.496 63.5659 155.091 65.7656 156.283 67.6833C157.473 69.602 159.081 71.1046 161.105 72.1934C163.129 73.2801 165.349 73.8222 167.763 73.8222C169.498 73.8222 171.172 73.5346 172.786 72.9592C174.402 72.3816 175.849 71.5406 177.126 70.4363C178.402 69.3298 179.364 67.9787 180.011 66.382L179.497 65.9748C178.034 67.0282 176.639 67.6324 175.313 67.7851C173.988 67.9389 172.917 67.7873 172.099 67.3292C171.283 66.8689 170.909 66.2658 170.977 65.5189C171.045 64.7377 171.367 64.1092 171.944 63.6334C172.522 63.1587 173.177 62.7769 173.907 62.487C174.64 62.1982 175.296 61.9183 175.876 61.6461C176.963 61.136 177.923 60.4399 178.757 59.5569C179.592 58.675 180.011 57.5032 180.011 56.0426ZM164.856 50.8951C165.875 49.9778 166.895 49.4433 167.914 49.2928C168.936 49.1401 169.83 49.3006 170.596 49.7753C171.361 50.2511 171.905 50.9725 172.227 51.9396C172.549 52.9078 172.524 54.0542 172.152 55.3787C171.98 56.0249 171.706 56.6379 171.332 57.2155C170.96 57.7909 170.585 58.3685 170.21 58.9461C169.158 60.6104 168.657 62.2923 168.708 63.9919C168.758 65.6893 169.718 67.0979 171.589 68.2188C169.617 68.1513 167.772 67.5992 166.052 66.5635C164.335 65.5277 163.119 64.0251 162.404 62.0533C161.963 60.7962 161.75 59.4717 161.766 58.0786C161.784 56.6866 162.055 55.361 162.582 54.104C163.11 52.847 163.868 51.7781 164.856 50.8951Z" fill="#561269"/>
</g>
<mask id="mask2_728_21931" style="mask-type:luminance" maskUnits="userSpaceOnUse" x="28" y="138" width="3" height="4">
<path d="M28.6934 138.236H30.3557V141.918H28.6934V138.236Z" fill="white"/>
</mask>
<g mask="url(#mask2_728_21931)">
<path d="M29.5288 141.808C29.0911 141.808 28.7354 141.452 28.7354 141.014V139.115C28.7354 138.678 29.0911 138.323 29.5288 138.323C29.9677 138.323 30.3234 138.678 30.3234 139.115V141.014C30.3234 141.452 29.9677 141.808 29.5288 141.808Z" fill="#561269"/>
</g>
<path d="M31.9946 142.47C31.4906 142.47 31.0811 142.115 31.0811 141.679V139.609C31.0811 139.171 31.4906 138.817 31.9946 138.817C32.4998 138.817 32.9093 139.171 32.9093 139.609V141.679C32.9093 142.115 32.4998 142.47 31.9946 142.47Z" fill="#561269"/>
<path d="M37.4789 142.47C36.9737 142.47 36.5654 142.098 36.5654 141.638V139.647C36.5654 139.189 36.9737 138.817 37.4789 138.817C37.9842 138.817 38.3937 139.189 38.3937 139.647V141.638C38.3937 142.098 37.9842 142.47 37.4789 142.47Z" fill="#561269"/>
<path d="M39.3077 142.47C38.8021 142.47 38.3936 142.086 38.3936 141.614V137.848C38.3936 137.374 38.8021 136.99 39.3077 136.99C39.8133 136.99 40.2218 137.374 40.2218 137.848V141.614C40.2218 142.086 39.8133 142.47 39.3077 142.47Z" fill="#561269"/>
<mask id="mask3_728_21931" style="mask-type:luminance" maskUnits="userSpaceOnUse" x="41" y="133" width="3" height="15">
<path d="M41.7041 133.018H43.4063V147.028H41.7041V133.018Z" fill="white"/>
</mask>
<g mask="url(#mask3_728_21931)">
<path d="M42.5456 147.112C42.1067 147.112 41.751 146.757 41.751 146.319V133.811C41.751 133.374 42.1067 133.018 42.5456 133.018C42.9844 133.018 43.339 133.374 43.339 133.811V146.319C43.339 146.757 42.9844 147.112 42.5456 147.112Z" fill="#561269"/>
</g>
<path d="M44.7937 142.47C44.2885 142.47 43.8789 142.057 43.8789 141.546V139.741C43.8789 139.231 44.2885 138.817 44.7937 138.817C45.2976 138.817 45.7072 139.231 45.7072 139.741V141.546C45.7072 142.057 45.2976 142.47 44.7937 142.47Z" fill="#561269"/>
<path d="M48.4499 142.47C47.9447 142.47 47.5352 142.122 47.5352 141.693V137.766C47.5352 137.337 47.9447 136.99 48.4499 136.99C48.9539 136.99 49.3634 137.337 49.3634 137.766V141.693C49.3634 142.122 48.9539 142.47 48.4499 142.47Z" fill="#561269"/>
<path d="M50.2781 146.123C49.7728 146.123 49.3633 145.775 49.3633 145.344V134.118C49.3633 133.687 49.7728 133.337 50.2781 133.337C50.782 133.337 51.1916 133.687 51.1916 134.118V145.344C51.1916 145.775 50.782 146.123 50.2781 146.123Z" fill="#561269"/>
<path d="M55.7621 146.123C55.2582 146.123 54.8486 145.782 54.8486 145.361V135.925C54.8486 135.504 55.2582 135.164 55.7621 135.164C56.2674 135.164 56.6769 135.504 56.6769 135.925V145.361C56.6769 145.782 56.2674 146.123 55.7621 146.123Z" fill="#561269"/>
<path d="M57.5903 146.123C57.0863 146.123 56.6768 145.765 56.6768 145.325V135.963C56.6768 135.521 57.0863 135.164 57.5903 135.164C58.0955 135.164 58.505 135.521 58.505 135.963V145.325C58.505 145.765 58.0955 146.123 57.5903 146.123Z" fill="#561269"/>
<path d="M61.2465 146.123C60.7426 146.123 60.333 145.753 60.333 145.297V135.988C60.333 135.532 60.7426 135.164 61.2465 135.164C61.7517 135.164 62.1613 135.532 62.1613 135.988V145.297C62.1613 145.753 61.7517 146.123 61.2465 146.123Z" fill="#561269"/>
<path d="M123.41 146.123C122.905 146.123 122.495 145.743 122.495 145.273V134.186C122.495 133.718 122.905 133.337 123.41 133.337C123.915 133.337 124.323 133.718 124.323 134.186V145.273C124.323 145.743 123.915 146.123 123.41 146.123Z" fill="#561269"/>
<path d="M125.238 144.296C124.733 144.296 124.323 143.944 124.323 143.51V137.778C124.323 137.343 124.733 136.99 125.238 136.99C125.743 136.99 126.152 137.343 126.152 137.778V143.51C126.152 143.944 125.743 144.296 125.238 144.296Z" fill="#561269"/>
<path d="M128.895 146.123C128.39 146.123 127.98 145.782 127.98 145.361V135.925C127.98 135.504 128.39 135.164 128.895 135.164C129.399 135.164 129.809 135.504 129.809 135.925V145.361C129.809 145.782 129.399 146.123 128.895 146.123Z" fill="#561269"/>
<path d="M130.723 146.123C130.218 146.123 129.809 145.761 129.809 145.312V135.975C129.809 135.527 130.218 135.164 130.723 135.164C131.227 135.164 131.637 135.527 131.637 135.975V145.312C131.637 145.761 131.227 146.123 130.723 146.123Z" fill="#561269"/>
<mask id="mask4_728_21931" style="mask-type:luminance" maskUnits="userSpaceOnUse" x="132" y="133" width="3" height="15">
<path d="M132.771 133.018H134.474V147.028H132.771V133.018Z" fill="white"/>
</mask>
<g mask="url(#mask4_728_21931)">
<path d="M133.653 147.112C133.214 147.112 132.858 146.757 132.858 146.319V133.811C132.858 133.374 133.214 133.018 133.653 133.018C134.091 133.018 134.446 133.374 134.446 133.811V146.319C134.446 146.757 134.091 147.112 133.653 147.112Z" fill="#561269"/>
</g>
<path d="M136.208 144.296C135.703 144.296 135.293 143.927 135.293 143.47V135.989C135.293 135.533 135.703 135.164 136.208 135.164C136.712 135.164 137.121 135.533 137.121 135.989V143.47C137.121 143.927 136.712 144.296 136.208 144.296Z" fill="#561269"/>
<path d="M141.692 146.123C141.188 146.123 140.778 145.769 140.778 145.332V134.127C140.778 133.691 141.188 133.337 141.692 133.337C142.197 133.337 142.607 133.691 142.607 134.127V145.332C142.607 145.769 142.197 146.123 141.692 146.123Z" fill="#561269"/>
<path d="M143.52 142.47C143.015 142.47 142.606 142.111 142.606 141.669V137.792C142.606 137.349 143.015 136.99 143.52 136.99C144.025 136.99 144.435 137.349 144.435 137.792V141.669C144.435 142.111 144.025 142.47 143.52 142.47Z" fill="#561269"/>
<path d="M147.176 142.47C146.671 142.47 146.263 142.132 146.263 141.714V139.571C146.263 139.154 146.671 138.817 147.176 138.817C147.681 138.817 148.091 139.154 148.091 139.571V141.714C148.091 142.132 147.681 142.47 147.176 142.47Z" fill="#561269"/>
<path d="M149.005 142.47C148.499 142.47 148.091 142.132 148.091 141.714V139.571C148.091 139.154 148.499 138.817 149.005 138.817C149.511 138.817 149.919 139.154 149.919 139.571V141.714C149.919 142.132 149.511 142.47 149.005 142.47Z" fill="#561269"/>
<mask id="mask5_728_21931" style="mask-type:luminance" maskUnits="userSpaceOnUse" x="19" y="74" width="156" height="55">
<path d="M174.192 74.2169H19.292V128.321H174.192V74.2169Z" fill="white"/>
</mask>
<g mask="url(#mask5_728_21931)">
<mask id="mask6_728_21931" style="mask-type:luminance" maskUnits="userSpaceOnUse" x="19" y="77" width="35" height="38">
<path d="M19.4512 77.3326H53.9029V114.441H19.4512V77.3326Z" fill="white"/>
</mask>
<g mask="url(#mask6_728_21931)">
<path d="M19.4541 114.372V113.474C20.1567 113.474 20.7817 113.255 21.3292 112.814C21.8755 112.375 22.1492 111.486 22.1492 110.15V81.6546C22.1492 80.3179 21.8755 79.4305 21.3292 78.9901C20.7817 78.5508 20.1567 78.3306 19.4541 78.3306V77.4365H33.8829V78.3306C33.1758 78.3306 32.5497 78.5508 32.0034 78.9901C31.4592 79.4305 31.1877 80.3179 31.1877 81.6546V93.0562C32.1386 91.6841 33.1249 90.2501 34.1444 88.754C35.1662 87.258 36.1968 85.8151 37.2341 84.4253C38.2736 83.0355 39.2698 81.8139 40.2218 80.7605C41.1017 79.7757 42.0969 78.9757 43.2051 78.3616C44.3155 77.7452 45.6475 77.4365 47.199 77.4365C48.9599 77.4365 50.5015 77.93 51.8224 78.9148C53.1434 79.8974 53.8039 81.586 53.8039 83.9783C53.8039 85.8085 53.2476 87.2691 52.1372 88.3601C51.029 89.4489 49.6648 90.0111 48.0457 90.0465C46.8455 90.0819 45.7251 89.7577 44.6856 89.0727C43.6483 88.3856 42.9712 87.4262 42.6554 86.1958C43.4998 86.1249 44.0894 85.7653 44.4241 85.1158C44.7577 84.4641 44.8186 83.8046 44.6058 83.1373C44.3953 82.4679 43.85 82.0441 42.9701 81.867C42.231 81.6579 41.5705 81.7199 40.9887 82.0529C40.4091 82.3871 39.8904 82.8353 39.4327 83.3985C38.974 83.9628 38.5506 84.5072 38.1605 85.0317L36.8396 86.8287L51.4811 112.155C52.0097 113.035 52.7844 113.474 53.8039 113.474V114.372H43.7636C42.7407 114.372 41.9484 113.933 41.3876 113.053L31.1877 95.0081V110.15C31.1877 111.486 31.4592 112.375 32.0034 112.814C32.5497 113.255 33.1758 113.474 33.8829 113.474V114.372H19.4541Z" fill="#561269"/>
</g>
<path d="M74.8348 114.373C74.1278 114.373 73.5017 114.145 72.9553 113.687C72.4112 113.23 72.1397 112.35 72.1397 111.049V109.783C70.904 111.261 69.388 112.396 67.5916 113.186C65.7941 113.978 63.9102 114.373 61.9398 114.373C59.2269 114.373 57.1657 113.687 55.756 112.314C54.3464 110.942 53.6416 109.342 53.6416 107.512C53.6416 105.895 54.0284 104.525 54.803 103.4C55.5798 102.274 56.5761 101.297 57.7907 100.47C59.0053 99.6414 60.3085 98.8934 61.7004 98.2262C63.0923 97.5567 64.431 96.8795 65.7166 96.1946C67.0021 95.5074 68.0848 94.724 68.9658 93.8443C69.9521 92.8617 70.3932 91.9843 70.2868 91.2108C70.1826 90.4351 69.7338 89.8365 68.9392 89.4138C68.1468 88.9922 67.206 88.8163 66.1155 88.8871C64.318 88.9579 63.0314 89.3983 62.2545 90.2061C61.4799 91.015 61.1885 91.8858 61.3813 92.8175C61.5763 93.7503 62.2025 94.4983 63.2608 95.0615C62.802 95.835 62.0351 96.3971 60.9602 96.7479C59.8874 97.0997 58.9266 97.2569 58.0788 97.2215C56.9884 97.186 55.9755 96.8884 55.0424 96.3274C54.1082 95.7642 53.6416 94.8845 53.6416 93.6894C53.6416 92.6692 53.9752 91.8072 54.6434 91.1046C55.3139 90.3997 56.1772 89.8454 57.2322 89.4404C58.2894 89.0365 59.4353 88.73 60.6676 88.5197C61.9021 88.3073 63.0746 88.1657 64.1828 88.0948C65.2932 88.024 66.2363 87.9886 67.0109 87.9886C68.2455 87.9886 69.6108 88.0948 71.1068 88.3073C72.6051 88.5175 74.0325 88.9037 75.3889 89.4669C76.7454 90.0313 77.8636 90.8235 78.7446 91.8437C79.6245 92.8617 80.0655 94.1796 80.0655 95.7962V110.15C80.0655 111.487 80.3382 112.375 80.8856 112.815C81.432 113.255 82.057 113.474 82.7607 113.474V114.373H74.8348ZM71.0803 91.7331C71.0803 92.719 70.7179 93.6695 69.9942 94.5835C69.2728 95.4986 68.5602 96.2909 67.8576 96.9603C66.7638 97.9462 65.7498 98.8702 64.8167 99.731C63.8858 100.593 63.1289 101.552 62.5471 102.608C61.9642 103.661 61.6561 104.98 61.6206 106.565C61.5852 108.218 62.0074 109.555 62.8884 110.575C63.7683 111.593 64.8621 112.102 66.1687 112.102C67.4365 112.102 68.5192 111.787 69.418 111.155C70.3156 110.521 70.9938 109.685 71.4526 108.65C71.9103 107.612 72.1397 106.511 72.1397 105.348V96.9603C72.1397 94.6742 71.7862 92.9315 71.0803 91.7331Z" fill="#561269"/>
<path d="M92.1103 94.8491V109.15C92.1812 109.221 92.261 109.309 92.3496 109.415C92.4383 109.519 92.5181 109.606 92.589 109.676C93.644 110.662 94.8941 111.199 96.3392 111.288C97.7842 111.374 99.0354 110.889 100.094 109.836C101.078 108.851 101.754 107.523 102.124 105.852C102.496 104.179 102.682 102.482 102.682 100.758C102.682 99.7731 102.576 98.6555 102.363 97.4073C102.153 96.1592 101.793 94.9818 101.282 93.8753C100.77 92.7666 100.074 91.9301 99.1939 91.3657C98.0292 90.6288 96.7869 90.6033 95.4659 91.2905C94.1449 91.9754 93.0256 93.1616 92.1103 94.8491ZM92.1103 110.469V121.6C92.1103 122.937 91.8365 123.833 91.2902 124.291C90.7461 124.748 90.121 124.978 89.4151 124.978H81.4893V124.083C82.1919 124.083 82.8169 123.854 83.3643 123.397C83.9107 122.939 84.1844 122.061 84.1844 120.759V94.6897C84.1844 93.353 83.9107 92.4656 83.3643 92.0252C82.8169 91.5859 82.1919 91.3657 81.4893 91.3657V90.4672C83.2502 90.3964 85.0998 90.1076 87.0391 89.5997C88.9774 89.0896 90.6674 88.5529 92.1103 87.9886V93.1583C92.6034 92.3859 93.2639 91.6036 94.0917 90.8125C94.9218 90.0224 95.8914 89.3541 96.9996 88.8074C98.1101 88.2619 99.318 87.9886 100.621 87.9886C102.875 87.9886 104.733 88.5884 106.193 89.7856C107.656 90.9807 108.757 92.5729 109.496 94.5614C110.237 96.5476 110.608 98.7551 110.608 101.183C110.608 104.031 110.096 106.44 109.075 108.411C108.055 110.379 106.743 111.865 105.138 112.868C103.536 113.871 101.837 114.373 100.041 114.373C98.6309 114.373 97.2745 114.048 95.9712 113.399C94.668 112.747 93.3803 111.77 92.1103 110.469Z" fill="#561269"/>
<path d="M115.941 80.0215C117.069 80.0215 118.012 80.4088 118.769 81.1812C119.525 81.9546 119.904 82.8874 119.904 83.9785C119.904 85.0706 119.525 86.0034 118.769 86.7758C118.012 87.5492 117.069 87.9354 115.941 87.9354C114.85 87.9354 113.916 87.5492 113.139 86.7758C112.365 86.0034 111.978 85.0706 111.978 83.9785C111.978 82.8874 112.365 81.9546 113.139 81.1812C113.916 80.4088 114.85 80.0215 115.941 80.0215ZM109.336 114.372V113.474C110.039 113.474 110.655 113.255 111.184 112.814C111.713 112.375 111.978 111.487 111.978 110.15V94.6896C111.978 93.3529 111.713 92.4655 111.184 92.0251C110.655 91.5858 110.039 91.3656 109.336 91.3656V90.4671C111.097 90.3963 112.946 90.1075 114.886 89.5996C116.824 89.0895 118.496 88.5528 119.904 87.9885V110.15C119.904 111.487 120.176 112.375 120.724 112.814C121.27 113.255 121.895 113.474 122.599 113.474V114.372H109.336Z" fill="#561269"/>
<path d="M123.867 88.8872H121.225V87.9887C122.421 87.9179 123.725 87.5937 125.134 87.015C126.544 86.434 127.865 85.6506 129.097 84.6647C130.332 83.6799 131.231 82.5535 131.792 81.2876V87.9887H136.021V88.8872H131.792V106.246C131.792 110.047 133.308 111.788 136.34 111.469V112.421L136.287 112.474C135.193 113.038 134.109 113.495 133.034 113.846C131.961 114.198 130.877 114.373 129.784 114.373C128.058 114.373 126.781 114.048 125.954 113.399C125.127 112.747 124.571 111.841 124.288 110.681C124.006 109.519 123.867 108.216 123.867 106.773V88.8872Z" fill="#561269"/>
<path d="M161.388 95.9556C161.388 94.4773 160.973 93.2291 160.147 92.2111C159.319 91.1909 158.26 90.3732 156.973 89.7591C155.687 89.1427 154.349 88.6946 152.957 88.4135C151.567 88.1303 150.29 87.9886 149.127 87.9886C146.556 87.9886 144.194 88.5352 142.043 89.6263C139.894 90.7151 138.178 92.2454 136.892 94.2161C135.607 96.1846 134.964 98.5072 134.964 101.183C134.964 103.75 135.58 106.028 136.812 108.017C138.047 110.003 139.713 111.56 141.808 112.686C143.903 113.81 146.202 114.373 148.706 114.373C150.502 114.373 152.236 114.075 153.91 113.479C155.582 112.88 157.079 112.009 158.4 110.867C159.721 109.723 160.716 108.322 161.388 106.667L160.86 106.246C159.344 107.338 157.899 107.964 156.525 108.123C155.151 108.28 154.04 108.121 153.196 107.645C152.35 107.17 151.964 106.546 152.035 105.773C152.106 104.965 152.439 104.314 153.036 103.821C153.636 103.328 154.314 102.933 155.071 102.635C155.83 102.334 156.508 102.044 157.106 101.763C158.234 101.235 159.23 100.513 160.093 99.5983C160.956 98.6843 161.388 97.4693 161.388 95.9556ZM145.691 90.6266C146.748 89.6772 147.806 89.1239 148.861 88.9668C149.918 88.8074 150.843 88.9745 151.636 89.4669C152.43 89.9604 152.994 90.7085 153.329 91.711C153.663 92.7113 153.636 93.8975 153.249 95.2695C153.072 95.9401 152.789 96.5741 152.403 97.1728C152.015 97.7692 151.628 98.3667 151.241 98.9653C150.147 100.689 149.628 102.43 149.681 104.188C149.734 105.947 150.729 107.408 152.668 108.57C150.623 108.499 148.711 107.927 146.932 106.853C145.153 105.779 143.894 104.222 143.156 102.183C142.697 100.882 142.477 99.5097 142.495 98.0668C142.513 96.6239 142.793 95.2518 143.337 93.9506C143.884 92.6493 144.668 91.5417 145.691 90.6266Z" fill="#561269"/>
<path d="M160.01 114.372V113.474C160.712 113.474 161.329 113.255 161.858 112.814C162.387 112.375 162.652 111.487 162.652 110.15V81.6547C162.652 80.318 162.387 79.4305 161.858 78.9902C161.329 78.5509 160.712 78.3307 160.01 78.3307V77.4366C161.771 77.3658 163.62 77.0759 165.56 76.5647C167.498 76.0545 169.17 75.5179 170.578 74.9536V110.15C170.578 111.487 170.85 112.375 171.398 112.814C171.944 113.255 172.569 113.474 173.273 113.474V114.372H160.01Z" fill="#561269"/>
</g>
<mask id="mask7_728_21931" style="mask-type:luminance" maskUnits="userSpaceOnUse" x="61" y="132" width="62" height="17">
<path d="M122.842 132.287H61.2793V149H122.842V132.287Z" fill="white"/>
</mask>
<g mask="url(#mask7_728_21931)">
<path d="M65.539 132.973H118.339C119.361 132.973 120.342 133.378 121.065 134.101C121.788 134.822 122.194 135.802 122.194 136.822V144.52C122.194 145.541 121.788 146.521 121.065 147.242C120.342 147.963 119.361 148.37 118.339 148.37H65.539C63.4102 148.37 61.6836 146.646 61.6836 144.52V136.822C61.6836 134.696 63.4102 132.973 65.539 132.973Z" fill="#EDE1D8"/>
<path d="M67.7347 140.26H69.6098C70.0796 140.26 70.432 140.157 70.6692 139.951C70.9052 139.745 71.0238 139.432 71.0238 139.012C71.0238 138.638 70.9097 138.352 70.6825 138.154C70.4542 137.953 70.1084 137.853 69.6452 137.853H67.7347V140.26ZM67.7347 144.005H66.7949V137.047H69.9245C70.5473 137.047 71.0482 137.228 71.4272 137.591C71.8084 137.952 71.999 138.422 71.999 139.003C71.999 139.605 71.8151 140.1 71.4494 140.486C71.0826 140.873 70.5739 141.066 69.9245 141.066H67.7347V144.005Z" fill="#561269"/>
<path d="M79.3599 140.526C79.3599 139.711 79.1438 139.038 78.7127 138.503C78.2805 137.966 77.6865 137.698 76.9307 137.698C76.186 137.698 75.5942 137.966 75.1576 138.503C74.7231 139.038 74.5059 139.711 74.5059 140.526C74.5059 141.365 74.7254 142.046 75.1664 142.571C75.6097 143.096 76.1971 143.359 76.9307 143.359C77.6488 143.359 78.2317 143.104 78.6816 142.593C79.1338 142.079 79.3599 141.391 79.3599 140.526ZM80.3262 140.526C80.3262 141.565 80.0259 142.436 79.4264 143.137C78.8257 143.84 77.9946 144.191 76.9307 144.191C75.8635 144.191 75.0301 143.84 74.4306 143.137C73.8333 142.436 73.5352 141.565 73.5352 140.526C73.5352 139.485 73.8333 138.614 74.4306 137.914C75.0301 137.213 75.8635 136.861 76.9307 136.861C78.0234 136.861 78.8634 137.218 79.4485 137.932C80.0336 138.647 80.3262 139.511 80.3262 140.526Z" fill="#561269"/>
<path d="M83.304 143.199H85.1303C85.762 143.199 86.2574 142.958 86.6153 142.473C86.9722 141.99 87.1517 141.327 87.1517 140.486C87.1517 139.657 86.971 139.012 86.6109 138.552C86.2496 138.092 85.7299 137.859 85.0505 137.853H83.304V143.199ZM82.3643 137.047H85.188C86.1011 137.047 86.8159 137.361 87.3334 137.99C87.8499 138.616 88.1092 139.428 88.1092 140.429C88.1092 141.5 87.8499 142.365 87.3334 143.022C86.8159 143.677 86.0878 144.005 85.1481 144.005H82.3643V137.047Z" fill="#561269"/>
<path d="M95.0684 139.14C94.9642 138.666 94.7459 138.307 94.4123 138.065C94.0776 137.82 93.6465 137.698 93.1179 137.698C92.432 137.698 91.879 137.945 91.4601 138.441C91.0434 138.937 90.835 139.609 90.835 140.455C90.835 141.432 91.0323 142.161 91.429 142.642C91.8247 143.12 92.3965 143.359 93.1445 143.359C93.6377 143.359 94.0621 143.195 94.4167 142.867C94.7736 142.54 95.013 142.065 95.1349 141.442H96.0525C95.9283 142.336 95.5881 143.018 95.0329 143.487C94.4766 143.956 93.8006 144.191 93.0027 144.191C92.0507 144.191 91.2894 143.865 90.7198 143.212C90.1491 142.557 89.8643 141.649 89.8643 140.486C89.8643 139.368 90.1613 138.484 90.7553 137.835C91.3515 137.186 92.1394 136.861 93.1179 136.861C93.9269 136.861 94.583 137.071 95.0861 137.49C95.5881 137.906 95.8862 138.457 95.9815 139.14H95.0684Z" fill="#561269"/>
<path d="M101.599 141.146L100.571 138.083H100.553L99.4361 141.146H101.599ZM99.148 141.978L98.4165 144.005H97.4502L100.07 137.047H101.138L103.661 144.005H102.632L101.941 141.978H99.148Z" fill="#561269"/>
<path d="M109.571 139.083C109.55 138.64 109.382 138.294 109.07 138.043C108.76 137.793 108.35 137.667 107.842 137.667C107.33 137.667 106.938 137.772 106.663 137.981C106.388 138.191 106.251 138.493 106.251 138.888C106.251 139.101 106.309 139.282 106.428 139.433C106.549 139.583 106.765 139.696 107.075 139.769L109.065 140.225C109.603 140.34 110.001 140.561 110.258 140.889C110.517 141.216 110.648 141.615 110.648 142.084C110.648 142.772 110.395 143.295 109.89 143.655C109.385 144.011 108.726 144.191 107.917 144.191C107.302 144.191 106.816 144.112 106.459 143.956C106.104 143.797 105.79 143.547 105.515 143.204C105.24 142.858 105.103 142.376 105.103 141.756H105.985C105.985 142.273 106.155 142.675 106.499 142.96C106.845 143.243 107.315 143.385 107.909 143.385C108.485 143.385 108.932 143.283 109.252 143.08C109.573 142.876 109.735 142.587 109.735 142.212C109.735 141.87 109.638 141.615 109.447 141.446C109.257 141.278 108.884 141.13 108.325 140.999L106.822 140.65C106.323 140.535 105.95 140.338 105.705 140.057C105.459 139.773 105.337 139.426 105.337 139.012C105.337 138.387 105.547 137.872 105.967 137.467C106.389 137.064 106.979 136.861 107.736 136.861C108.587 136.861 109.244 137.04 109.708 137.397C110.171 137.751 110.422 138.313 110.457 139.083H109.571Z" fill="#561269"/>
<path d="M114.441 137.879H112.096V137.047H117.756V137.879H115.385V144.005H114.441V137.879Z" fill="#561269"/>
</g>
</svg>
