<svg width="1530" height="1261" viewBox="0 0 1530 1261" fill="none" xmlns="http://www.w3.org/2000/svg">
<mask id="mask0_350_21748" style="mask-type:luminance" maskUnits="userSpaceOnUse" x="0" y="0" width="557" height="526">
<path d="M556.364 0H0V525.017H556.364V0Z" fill="white"/>
</mask>
<g mask="url(#mask0_350_21748)">
<path d="M133.857 359.404C130.157 360.228 125.848 361.558 120.93 363.412C116.002 365.257 111.534 367.457 107.515 370.005C103.515 372.571 100.808 375.193 99.3839 377.871C96.9108 382.385 97.1075 386.13 99.9834 389.108C102.85 392.077 106.962 394.325 112.311 395.851C117.651 397.396 122.475 398.173 126.775 398.173H133.857V359.404ZM147.084 396.338C151.206 396.338 156.648 395.308 163.421 393.266C170.185 391.215 177.52 388.547 185.417 385.25C193.332 381.973 200.976 378.545 208.349 374.949C215.74 371.353 221.997 367.907 227.121 364.611C232.264 361.333 235.562 358.776 237.014 356.932C234.138 356.932 230.906 356.52 227.309 355.696C223.712 354.89 220.47 354.281 217.604 353.86C212.48 353.036 207.712 352.474 203.29 352.174C198.868 351.875 194.606 351.725 190.513 351.725C184.967 351.725 179.318 352.025 173.576 352.624C167.824 353.242 161.473 354.066 154.503 355.096C151.206 355.489 149.192 356.108 148.47 356.932C147.768 357.756 147.618 358.992 148.021 360.64C148.442 362.288 148.442 364.845 148.021 368.319L147.084 396.338ZM249.641 348.953C249.641 348.953 250.503 348.279 252.227 346.93C253.969 345.6 255.824 344.214 257.772 342.772C259.74 341.349 260.929 340.534 261.332 340.338L276.733 327.077C277.95 326.047 278.868 325.279 279.468 324.755C280.086 324.249 281.023 323.594 282.278 322.77C283.899 321.543 286.194 319.38 289.173 316.289C292.17 313.218 295.355 309.781 298.728 305.988C302.119 302.196 305.304 298.609 308.283 295.238C311.252 291.848 313.36 289.319 314.615 287.671C315.412 286.65 316.124 285.789 316.751 285.086C317.369 284.365 318.1 283.494 318.924 282.464C323.018 277.126 327.065 271.33 331.065 265.084C335.056 258.819 338.709 252.816 342.006 247.066C347.552 237.43 352.47 226.352 356.77 213.84C361.088 201.311 364.058 188.425 365.688 175.183C367.337 161.951 367.187 149.131 365.238 136.714C363.29 124.305 358.878 113.18 352.011 103.338C345.135 93.4771 335.234 85.8731 322.297 80.5259C315.927 77.6603 309.351 75.7125 302.587 74.6824C295.814 73.6616 289.042 73.1466 282.278 73.1466C272.836 73.1466 263.543 73.9706 254.4 75.6188C245.257 77.267 236.489 79.3178 228.096 81.762L197.295 92.55C190.925 95.425 186.25 97.532 183.281 98.8805C180.302 100.21 178.353 101.643 177.435 103.188C176.508 104.715 175.637 107.421 174.812 111.317C172.564 123.631 170.4 134.972 168.33 145.329C166.278 155.696 164.227 167.242 162.185 179.978C160.33 191.244 158.944 201.76 158.025 211.518C157.098 221.257 155.927 231.259 154.503 241.522L150.194 305.838C150.391 316.926 150.129 325.335 149.407 331.085C148.677 336.826 148.218 340.675 148.021 342.623C147.815 344.57 148.433 345.544 149.857 345.544C150.681 345.544 151.702 345.394 152.929 345.095C154.175 344.795 155.824 344.533 157.876 344.308C163.215 343.503 168.349 342.941 173.276 342.623C178.194 342.323 182.915 342.173 187.44 342.173C195.655 342.173 203.712 342.585 211.609 343.409C219.496 344.233 227.964 345.451 237.014 347.08C239.262 347.501 241.257 347.914 243.009 348.316C244.751 348.738 246.962 348.953 249.641 348.953ZM180.958 86.4068C183.224 86.4068 185.285 85.9012 187.14 84.8711C188.986 83.8222 190.934 82.9045 192.986 82.0991L228.096 68.8388C236.489 66.3947 245.257 64.4 254.4 62.8455C263.543 61.3003 272.733 60.5231 281.978 60.5231C295.318 60.5231 308.339 62.5365 321.06 66.5539C333.8 70.5526 344.892 77.37 354.334 87.0062C363.552 96.2491 370.203 106.775 374.306 118.584C378.428 130.374 380.536 142.688 380.639 155.518C380.732 168.328 379.346 180.793 376.479 192.901C371.355 214.655 364.02 234.199 354.484 251.524C344.938 268.858 333.182 285.742 319.224 302.167L309.969 312.319C308.545 314.163 306.184 316.776 302.887 320.147C299.608 323.537 296.33 326.824 293.032 329.999C289.754 333.192 287.299 335.402 285.651 336.629C283.796 338.071 281.997 339.513 280.255 340.937C278.503 342.379 276.714 343.915 274.896 345.544C272.217 347.389 270.063 348.925 268.414 350.152C266.765 351.397 265.641 353.045 265.042 355.096C268.311 355.714 271.384 357.156 274.259 359.404C277.126 361.651 278.925 364.105 279.655 366.783C280.377 369.452 279.093 371.915 275.796 374.163C273.744 372.739 272.461 371.353 271.936 370.005C271.43 368.675 269.744 367.308 266.878 365.884C261.529 363.206 257.735 361.876 255.487 361.876C253.435 361.876 251.533 362.532 249.791 363.861C248.039 365.21 245.416 367.008 241.922 369.255C236.171 372.945 229.557 376.841 222.063 380.942C214.569 385.063 206.925 388.856 199.131 392.33C191.337 395.823 184.152 398.595 177.585 400.646C175.534 401.47 172.564 402.444 168.667 403.567C164.77 404.691 160.808 405.665 156.789 406.489C152.789 407.313 149.454 407.819 146.784 408.025L148.021 432.673C148.218 433.693 147.805 434.667 146.784 435.594C145.754 436.512 144.536 436.98 143.112 436.98C141.857 436.98 140.62 436.465 139.403 435.445C138.175 434.414 137.051 432.57 136.03 429.901C135.403 427.625 135.037 425.668 134.944 424.02C134.84 422.39 134.691 420.349 134.494 417.877C134.063 413.981 133.595 411.471 133.07 410.347C132.564 409.224 131.702 408.662 130.485 408.662C129.66 408.662 128.78 408.709 127.862 408.812C126.934 408.905 125.744 408.961 124.302 408.961C119.805 408.961 114.672 408.034 108.901 406.189C103.15 404.335 98.1848 401.62 93.9881 398.024C89.7914 394.428 87.693 389.97 87.693 384.651C87.693 377.88 89.5291 372.439 93.2012 368.319C96.8921 364.217 101.417 360.987 106.766 358.617C112.105 356.267 117.342 354.272 122.466 352.624C127.609 350.994 131.721 349.459 134.794 348.017C134.794 342.267 134.944 336.938 135.243 332.022C135.543 327.096 135.693 321.964 135.693 316.626C135.693 311.701 136.049 306.475 136.78 300.931C137.501 295.387 137.866 290.162 137.866 285.236C137.866 280.32 138.11 273.868 138.616 265.87C139.14 257.854 139.862 249.079 140.789 239.537C141.707 229.976 142.681 220.424 143.712 210.881C144.733 201.348 145.754 192.63 146.784 184.735C147.805 176.85 148.733 170.641 149.557 166.118L160.648 111.953C157.145 113.808 152.677 116.58 147.234 120.269C141.81 123.94 136.115 128.042 130.147 132.556C124.199 137.079 118.606 141.546 113.36 145.966C108.133 150.367 103.993 154.094 100.92 157.166L80.6111 178.742C74.2411 185.915 67.309 194.624 59.8149 204.888C52.3207 215.151 45.1826 226.033 38.4191 237.514C31.6463 249.005 26.0538 260.345 21.6323 271.526C17.2107 282.717 15 292.934 15 302.167C15 307.084 15.6089 310.567 16.836 312.618C18.0819 314.66 19.5152 315.933 21.1452 316.439C22.7939 316.963 24.274 317.376 25.6042 317.675C26.9531 317.994 27.8337 319.08 28.2646 320.934C28.8641 323.8 27.2154 325.242 23.3185 325.242C20.0398 325.242 16.2459 323.444 11.9274 319.848C7.63699 316.252 5.48242 310.352 5.48242 302.167C5.48242 295.181 6.67212 287.634 9.04213 279.543C11.3934 271.433 14.3442 263.323 17.9227 255.232C21.5199 247.122 25.3606 239.425 29.4636 232.158C33.5854 224.872 37.3887 218.654 40.8922 213.503C47.6556 203.24 54.1662 194.268 60.4144 186.571C66.6814 178.882 73.2013 171.456 79.9741 164.283C86.7375 157.091 94.3347 149.29 102.756 140.871C110.55 134.11 118.438 127.536 126.438 121.168C134.456 114.8 142.887 108.957 151.73 103.638C154.803 101.99 157.669 100.407 160.349 98.8805C163.018 97.3353 164.751 95.5373 165.557 93.4865C167 90.6209 168.189 87.849 169.117 85.1707C170.035 82.5018 172.349 80.7506 176.049 79.9265C178.091 80.9566 179.421 81.6309 180.021 81.9493C180.639 82.249 180.958 83.7379 180.958 86.4068Z" fill="#561269"/>
<path d="M385.106 248.303C389.003 246.262 393.312 243.433 398.034 239.837C402.755 236.241 405.322 231.99 405.753 227.064C403.074 227.467 400.244 228.9 397.247 231.372C394.268 233.825 391.711 236.597 389.565 239.688C387.411 242.759 385.931 245.634 385.106 248.303ZM371.242 255.682C371.242 250.569 372.928 245.035 376.301 239.088C379.692 233.123 383.907 228.038 388.928 223.843C393.968 219.629 398.952 217.512 403.879 217.512C410.643 217.512 414.184 220.087 414.483 225.229C414.802 230.351 412.61 235.886 407.888 241.823C405.415 244.501 401.715 247.582 396.797 251.075C391.87 254.549 387.055 256.497 382.334 256.918C382.334 260.196 382.427 263.118 382.633 265.684C382.83 268.259 384.263 270.881 386.942 273.55C389.612 276.2 392.994 277.521 397.097 277.521C402.437 277.521 407.982 275.835 413.734 272.464C419.476 269.074 423.888 266.246 426.961 263.998C428.207 262.977 429.181 262.153 429.884 261.526C430.605 260.908 431.476 260.196 432.507 259.391C436.825 256.094 439.551 253.688 440.675 252.161C441.799 250.616 442.774 249.595 443.598 249.09C444.422 248.565 446.371 248.303 449.443 248.303C449.865 250.551 450.024 252.086 449.931 252.91C449.828 253.735 449.05 254.971 447.607 256.619C443.907 260.29 439.233 264.485 433.593 269.205C427.945 273.925 421.884 278.036 415.42 281.529C408.975 285.031 402.568 286.773 396.198 286.773C392.9 286.773 389.762 286.211 386.793 285.087C383.814 283.945 380.994 282.044 378.324 279.394C374.624 275.704 372.516 271.902 371.992 268.006C371.486 264.092 371.242 259.981 371.242 255.682Z" fill="#561269"/>
<path d="M351.236 166.718C351.236 164.049 353.7 161.23 358.618 158.252C363.545 155.283 369.747 152.362 377.241 149.487C384.735 146.621 392.641 143.905 400.96 141.358C409.278 138.792 416.941 136.582 423.929 134.728C430.899 132.883 436.126 131.45 439.592 130.42C443.911 129.175 446.946 128.454 448.698 128.248C450.44 128.051 451.564 127.386 452.07 126.262C452.594 125.12 453.157 122.807 453.756 119.333C455.405 110.923 457.297 105.127 459.452 101.952C461.625 98.7586 463.733 97.1572 465.784 97.1572C467.405 97.1572 468.782 98.0375 469.906 99.7793C471.049 101.53 471.63 103.628 471.63 106.072C471.63 107.927 471.517 108.694 471.292 108.395C471.086 108.095 471.105 108.769 471.33 110.418C471.33 110.82 471.377 111.335 471.48 111.953C471.573 112.553 471.63 113.367 471.63 114.388C471.63 117.066 471.114 118.396 470.093 118.396C469.063 118.396 468.042 118.565 467.021 118.883C465.99 119.183 465.484 120.971 465.484 124.24C467.929 124.24 470.637 123.893 473.616 123.191C476.585 122.47 479.208 122.011 481.484 121.805C490.496 120.157 499.517 118.677 508.538 117.347C517.578 115.999 526.824 115.325 536.266 115.325C541.213 115.325 544.81 116.355 547.058 118.396C549.306 120.447 550.112 122.507 549.494 124.577C548.894 126.628 546.646 127.648 542.749 127.648C542.346 126 542.084 125.232 541.962 125.326C541.859 125.429 540.885 125.279 539.039 124.876C538.234 124.652 536.604 124.539 534.131 124.539C529.803 124.539 524.098 125.008 517.007 125.925C509.934 126.852 502.599 127.939 495.011 129.184C487.414 130.411 480.641 131.582 474.702 132.705C468.754 133.829 464.857 134.606 463.011 135.028L456.829 198.108C456.623 199.559 456.576 201.104 456.679 202.753C456.772 204.382 456.829 206.011 456.829 207.66C456.829 209.71 456.679 211.05 456.379 211.668C456.079 212.295 455.929 213.728 455.929 215.975C455.929 220.498 456.023 225.677 456.229 231.521C456.426 237.364 456.323 241.934 455.929 245.23C455.723 247.085 455.564 250.727 455.442 256.168C455.339 261.59 455.236 267.893 455.142 275.085C455.039 282.258 454.993 289.488 454.993 296.773C454.993 304.059 454.993 310.68 454.993 316.626C454.993 322.563 455.086 326.871 455.292 329.549C455.292 331.797 455.536 335.224 456.042 339.85C456.566 344.467 456.679 348.625 456.379 352.324C456.079 356.014 454.59 357.868 451.92 357.868C448.023 357.868 445.662 355.705 444.838 351.388C444.014 347.089 443.602 343.091 443.602 339.401C442.974 332.003 442.609 323.378 442.515 313.517C442.412 303.684 442.412 293.842 442.515 284C442.609 274.139 442.665 265.523 442.665 258.154L443.602 243.657C443.602 240.792 443.602 236.381 443.602 230.434C443.602 224.497 443.695 218.185 443.901 211.518C444.126 204.85 444.332 198.744 444.538 193.201C444.735 187.657 445.035 183.761 445.438 181.514C445.859 179.444 446.121 176.972 446.224 174.097C446.318 171.231 446.468 168.768 446.674 166.718L449.447 138.099C448.623 138.305 446.824 138.717 444.051 139.335C441.297 139.963 439.105 140.478 437.456 140.871C427.395 143.343 417.803 145.966 408.679 148.737C399.536 151.491 390.15 154.712 380.501 158.402C378.655 159.226 376.96 160.106 375.405 161.024C373.859 161.951 372.164 162.822 370.309 163.646C367.864 164.676 366.281 165.397 365.55 165.819C364.829 166.221 364.463 166.736 364.463 167.354C364.463 167.954 363.958 169.283 362.927 171.325C362.103 171.55 361.297 171.718 360.492 171.812C359.667 171.915 358.749 171.962 357.719 171.962C356.07 171.962 354.59 171.606 353.26 170.875C351.911 170.154 351.236 168.768 351.236 166.718Z" fill="#561269"/>
</g>
<mask id="mask1_350_21748" style="mask-type:luminance" maskUnits="userSpaceOnUse" x="273" y="297" width="1257" height="439">
<path d="M1530 297.271H273.383V735.984H1530V297.271Z" fill="white"/>
</mask>
<g mask="url(#mask1_350_21748)">
<path d="M275.777 412.639C275.777 394.238 280.012 379.142 288.48 367.352C296.967 355.571 307.824 346.441 321.042 339.97C334.278 333.508 348.227 329.051 362.897 326.597C377.557 324.153 391.075 322.926 403.44 322.926C410.934 322.926 420.208 323.292 431.281 324.013C442.344 324.743 453.838 326.326 465.754 328.77C477.688 331.223 488.91 334.819 499.402 339.558C509.913 344.278 518.409 350.674 524.882 358.737C531.346 366.781 534.587 376.698 534.587 388.479C534.587 397.675 532.423 405.213 528.105 411.104C523.777 417.003 518.306 421.32 511.693 424.064C505.098 426.789 498.353 428.288 491.458 428.559C485.988 428.559 479.861 427.773 473.098 426.199C466.353 424.626 460.03 421.985 454.138 418.258C448.236 414.512 443.702 409.755 440.536 403.986C448.002 401.121 453.098 396.673 455.824 390.651C458.569 384.611 460.096 378.43 460.395 372.109C460.667 365.498 458.353 358.952 453.463 352.481C448.592 346.02 441.697 340.7 432.779 336.524C423.861 332.357 413.501 330.268 401.716 330.268C388.77 330.268 377.267 332.797 367.206 337.835C357.136 342.854 349.37 349.325 343.899 357.238C338.447 365.133 335.936 373.608 336.367 382.673C336.817 391.719 340.986 400.269 348.883 408.332C356.798 416.376 369.089 422.978 385.754 428.147C397.267 431.893 409.782 435.639 423.299 439.385C436.808 443.112 450.1 447.419 463.168 452.308C476.255 457.177 488.199 463.283 498.99 470.625C509.782 477.948 518.409 486.863 524.882 497.37C531.346 507.859 534.587 520.576 534.587 535.503C534.587 553.914 530.334 568.935 521.847 580.565C513.351 592.206 502.419 601.261 489.06 607.723C475.693 614.194 461.679 618.651 447.018 621.096C432.349 623.549 418.971 624.766 406.887 624.766C399.412 624.766 390.147 624.411 379.084 623.68C368.011 622.959 356.508 621.386 344.573 618.96C332.63 616.516 321.417 612.92 310.925 608.172C300.433 603.434 291.946 597.113 285.482 589.218C279.009 581.305 275.777 571.454 275.777 559.664C275.777 545.579 280.293 535.381 289.342 529.06C298.41 522.72 308.264 519.415 318.906 519.134C324.377 518.834 330.485 519.546 337.229 521.269C343.993 522.992 350.391 525.651 356.414 529.247C362.456 532.843 366.915 537.666 369.791 543.706C362.616 546.581 357.585 551.114 354.691 557.304C351.815 563.475 350.241 569.721 349.969 576.033C349.969 582.654 352.339 589.2 357.089 595.661C361.829 602.132 368.648 607.451 377.548 611.619C386.466 615.795 396.817 617.874 408.611 617.874C421.548 617.874 433.051 615.364 443.121 610.345C453.182 605.307 460.957 598.836 466.428 590.941C471.899 583.028 474.409 574.553 473.96 565.507C473.529 556.442 469.36 547.817 461.444 539.623C453.548 531.439 441.117 524.743 424.161 519.546C412.639 515.828 400.199 512.166 386.84 508.57C373.473 504.974 360.246 500.667 347.159 495.647C334.063 490.609 322.129 484.485 311.337 477.293C300.564 470.101 291.946 461.26 285.482 450.772C279.009 440.284 275.777 427.576 275.777 412.639Z" fill="#561269"/>
<path d="M596.642 624.765H531.93V617.424C537.672 617.424 542.703 615.644 547.03 612.067C551.349 608.471 553.513 601.204 553.513 590.266V357.425C553.513 346.515 551.349 339.257 547.03 335.661C542.703 332.065 537.672 330.267 531.93 330.267V322.925C546.318 322.354 561.419 319.985 577.232 315.808C593.044 311.641 606.693 307.258 618.187 302.66V488.08C626.824 478.322 635.592 468.695 644.492 459.199C653.41 449.713 661.962 441.313 670.159 433.99C678.346 426.648 685.466 421.254 691.517 417.808C696.407 415.214 701.522 413.125 706.843 411.552C712.164 409.96 717.69 409.155 723.442 409.155C735.808 409.155 746.505 412.62 755.555 419.531C764.622 426.423 769.156 438.063 769.156 454.442C769.156 467.103 765.344 477.17 757.728 484.633C750.103 492.106 740.688 496.124 729.475 496.695C721.128 496.995 713.363 494.7 706.168 489.803C698.993 484.914 694.262 478.153 691.967 469.538C698.281 468.966 702.515 466.382 704.669 461.784C706.815 457.195 707.18 452.887 705.756 448.861C704.604 445.695 702.159 443.036 698.412 440.882C694.684 438.709 689.943 438.485 684.173 440.208C678.721 441.931 672.407 445.677 665.213 451.445L745.438 591.128C749.185 597.177 753.063 603.068 757.091 608.808C761.11 614.558 766.721 617.424 773.915 617.424V624.765H703.583C698.131 624.765 693.541 622.836 689.794 618.959C686.047 615.064 682.599 610.681 679.452 605.811L618.187 499.729V597.608C618.187 608.246 616.023 615.438 611.705 619.184C607.405 622.911 602.384 624.765 596.642 624.765Z" fill="#561269"/>
<path d="M817.396 344.053C826.315 344.053 833.93 347.228 840.254 353.568C846.596 359.889 849.771 367.502 849.771 376.417C849.771 385.332 846.596 392.955 840.254 399.267C833.93 405.588 826.315 408.744 817.396 408.744C808.497 408.744 800.881 405.588 794.539 399.267C788.216 392.955 785.059 385.332 785.059 376.417C785.059 367.502 788.216 359.889 794.539 353.568C800.881 347.228 808.497 344.053 817.396 344.053ZM785.059 634.244V463.92C785.059 453.01 782.82 445.697 778.352 441.969C773.902 438.224 768.806 436.351 763.064 436.351V429.458C777.453 428.859 792.61 426.49 808.553 422.341C824.516 418.174 838.249 413.782 849.771 409.156V599.332C849.771 623.184 846.53 643.44 840.066 660.127C833.593 676.806 822.877 689.457 807.916 698.073C792.975 706.688 772.703 710.996 747.102 710.996C740.207 710.996 732.591 710.556 724.244 709.685C715.907 708.833 707.711 707.185 699.664 704.74C691.626 702.287 684.516 698.691 678.343 693.952C672.151 689.233 667.907 682.986 665.603 675.223C663.579 667.75 663.795 660.352 666.24 653.01C668.694 645.668 673.228 639.619 679.842 634.88C686.437 630.161 694.774 628.082 704.835 628.662C710.586 628.662 716.188 629.805 721.659 632.108C727.13 634.403 731.589 638.139 735.036 643.309C725.818 648.777 720.497 656.962 719.073 667.881C717.35 677.068 719.364 685.337 725.106 692.679C730.858 700.021 738.624 703.823 748.413 704.104C757.031 704.104 763.851 701.725 768.872 696.986C773.912 692.239 777.584 686.198 779.888 678.857C782.183 671.533 783.617 663.845 784.197 655.782C784.769 647.738 785.059 640.555 785.059 634.244Z" fill="#561269"/>
<path d="M869.587 562.658V463.918C869.587 453.008 867.423 445.751 863.105 442.155C858.777 438.559 853.746 436.761 848.004 436.761V429.456C862.393 428.857 877.493 426.488 893.306 422.339C909.119 418.172 922.767 413.78 934.261 409.154V551.458C934.261 567.566 937.99 578.784 945.465 585.096C952.959 591.417 962.374 593.655 973.718 591.801C985.081 589.928 996.238 585.115 1007.18 577.342C1009.47 575.619 1011.77 573.971 1014.07 572.398C1016.37 570.806 1018.51 569.139 1020.52 567.416V463.918C1020.52 453.008 1018.35 445.751 1014.04 442.155C1009.74 438.559 1004.72 436.761 998.973 436.761V429.456C1013.33 428.857 1028.43 426.488 1044.24 422.339C1060.07 418.172 1073.74 413.78 1085.23 409.154V590.265C1085.23 601.203 1087.45 608.47 1091.9 612.066C1096.37 615.643 1101.47 617.423 1107.23 617.423V624.765H1042.51C1036.76 624.765 1031.66 622.91 1027.19 619.183C1022.74 615.437 1020.52 608.245 1020.52 597.607V576.031C1011.9 582.352 1003.49 588.392 995.301 594.161C987.104 599.911 978.983 604.94 970.945 609.257C962.027 613.855 953.184 617.591 944.416 620.457C935.648 623.332 926.805 624.765 917.887 624.765C903.798 624.765 893.362 622.105 886.599 616.786C879.854 611.467 875.329 604.069 873.034 594.573C870.73 585.087 869.587 574.449 869.587 562.658Z" fill="#561269"/>
<path d="M1096.82 624.765V617.424C1102.56 617.424 1107.6 615.644 1111.92 612.067C1116.24 608.471 1118.41 601.204 1118.41 590.266V357.425C1118.41 346.515 1116.24 339.257 1111.92 335.661C1107.6 332.065 1102.56 330.267 1096.82 330.267V322.925C1111.21 322.354 1126.31 319.985 1142.12 315.808C1157.94 311.641 1171.59 307.258 1183.08 302.66V590.266C1183.08 601.204 1185.3 608.471 1189.75 612.067C1194.22 615.644 1199.32 617.424 1205.07 617.424V624.765H1096.82Z" fill="#561269"/>
<path d="M1215.42 416.496H1193.84V409.154C1203.6 408.583 1214.24 405.933 1225.73 401.213C1237.24 396.475 1248.03 390.079 1258.1 382.034C1268.16 373.972 1275.5 364.766 1280.1 354.428V409.154H1314.61V416.496H1280.1V558.351C1280.1 589.395 1292.46 603.629 1317.2 601.054V608.808L1316.78 609.257C1307.87 613.855 1299.02 617.592 1290.25 620.457C1281.49 623.332 1272.64 624.765 1263.72 624.765C1249.64 624.765 1239.2 622.106 1232.44 616.786C1225.69 611.467 1221.17 604.069 1218.87 594.574C1216.57 585.087 1215.42 574.449 1215.42 562.659V416.496Z" fill="#561269"/>
<path d="M1521.64 474.294C1521.64 462.213 1518.25 452.006 1511.48 443.69C1504.71 435.356 1496.08 428.669 1485.59 423.65C1475.1 418.612 1464.17 414.941 1452.8 412.637C1441.46 410.315 1431.04 409.154 1421.55 409.154C1400.57 409.154 1381.29 413.611 1363.73 422.526C1346.2 431.441 1332.18 443.952 1321.69 460.06C1311.2 476.148 1305.96 495.111 1305.96 516.959C1305.96 537.964 1310.99 556.581 1321.06 572.809C1331.12 589.048 1344.71 601.765 1361.82 610.98C1378.93 620.176 1397.69 624.764 1418.1 624.764C1432.77 624.764 1446.92 622.329 1460.56 617.46C1474.22 612.572 1486.45 605.454 1497.24 596.109C1508.03 586.744 1516.17 575.31 1521.64 561.797L1517.29 558.35C1504.92 567.266 1493.13 572.379 1481.92 573.671C1470.72 574.973 1461.66 573.69 1454.75 569.813C1447.86 565.917 1444.69 560.813 1445.27 554.492C1445.84 547.881 1448.57 542.562 1453.44 538.535C1458.33 534.518 1463.87 531.287 1470.04 528.833C1476.23 526.389 1481.78 524.02 1486.68 521.716C1495.87 517.399 1503.99 511.509 1511.03 504.036C1518.1 496.572 1521.64 486.655 1521.64 474.294ZM1393.52 430.73C1402.14 422.966 1410.76 418.443 1419.38 417.17C1428.02 415.877 1435.58 417.235 1442.05 421.253C1448.51 425.279 1453.11 431.385 1455.84 439.57C1458.55 447.764 1458.35 457.466 1455.2 468.675C1453.75 474.144 1451.43 479.332 1448.27 484.22C1445.12 489.09 1441.95 493.978 1438.79 498.867C1429.89 512.951 1425.66 527.185 1426.09 541.569C1426.51 555.934 1434.63 567.856 1450.44 577.342C1433.78 576.771 1418.18 572.098 1403.64 563.332C1389.12 554.567 1378.84 541.85 1372.8 525.162C1369.07 514.524 1367.28 503.315 1367.41 491.525C1367.56 479.744 1369.85 468.525 1374.3 457.887C1378.77 447.249 1385.18 438.203 1393.52 430.73Z" fill="#561269"/>
</g>
<mask id="mask2_350_21748" style="mask-type:luminance" maskUnits="userSpaceOnUse" x="242" y="1169" width="15" height="33">
<path d="M242.549 1169.9H256.6V1201.07H242.549V1169.9Z" fill="white"/>
</mask>
<g mask="url(#mask2_350_21748)">
<path d="M249.612 1200.13C245.911 1200.13 242.904 1197.12 242.904 1193.42V1177.35C242.904 1173.65 245.911 1170.64 249.612 1170.64C253.321 1170.64 256.328 1173.65 256.328 1177.35V1193.42C256.328 1197.12 253.321 1200.13 249.612 1200.13Z" fill="#561269"/>
</g>
<path d="M270.448 1205.74C266.188 1205.74 262.727 1202.74 262.727 1199.04V1181.52C262.727 1177.82 266.188 1174.82 270.448 1174.82C274.719 1174.82 278.181 1177.82 278.181 1181.52V1199.04C278.181 1202.74 274.719 1205.74 270.448 1205.74Z" fill="#561269"/>
<path d="M316.812 1205.74C312.541 1205.74 309.09 1202.58 309.09 1198.7V1181.85C309.09 1177.97 312.541 1174.82 316.812 1174.82C321.082 1174.82 324.544 1177.97 324.544 1181.85V1198.7C324.544 1202.58 321.082 1205.74 316.812 1205.74Z" fill="#561269"/>
<path d="M332.272 1205.74C327.998 1205.74 324.545 1202.49 324.545 1198.49V1166.62C324.545 1162.61 327.998 1159.36 332.272 1159.36C336.546 1159.36 339.999 1162.61 339.999 1166.62V1198.49C339.999 1202.49 336.546 1205.74 332.272 1205.74Z" fill="#561269"/>
<mask id="mask3_350_21748" style="mask-type:luminance" maskUnits="userSpaceOnUse" x="352" y="1125" width="15" height="120">
<path d="M352.529 1125.75H366.918V1244.31H352.529V1125.75Z" fill="white"/>
</mask>
<g mask="url(#mask3_350_21748)">
<path d="M359.64 1245.02C355.931 1245.02 352.924 1242.02 352.924 1238.31V1132.45C352.924 1128.75 355.931 1125.75 359.64 1125.75C363.35 1125.75 366.348 1128.75 366.348 1132.45V1238.31C366.348 1242.02 363.35 1245.02 359.64 1245.02Z" fill="#561269"/>
</g>
<path d="M378.641 1205.74C374.37 1205.74 370.908 1202.24 370.908 1197.91V1182.64C370.908 1178.33 374.37 1174.82 378.641 1174.82C382.901 1174.82 386.363 1178.33 386.363 1182.64V1197.91C386.363 1202.24 382.901 1205.74 378.641 1205.74Z" fill="#561269"/>
<path d="M409.551 1205.74C405.28 1205.74 401.818 1202.79 401.818 1199.16V1165.92C401.818 1162.29 405.28 1159.36 409.551 1159.36C413.811 1159.36 417.273 1162.29 417.273 1165.92V1199.16C417.273 1202.79 413.811 1205.74 409.551 1205.74Z" fill="#561269"/>
<path d="M425.006 1236.65C420.735 1236.65 417.273 1233.7 417.273 1230.06V1135.05C417.273 1131.4 420.735 1128.44 425.006 1128.44C429.266 1128.44 432.728 1131.4 432.728 1135.05V1230.06C432.728 1233.7 429.266 1236.65 425.006 1236.65Z" fill="#561269"/>
<path d="M471.359 1236.65C467.099 1236.65 463.637 1233.76 463.637 1230.2V1150.34C463.637 1146.78 467.099 1143.9 471.359 1143.9C475.629 1143.9 479.091 1146.78 479.091 1150.34V1230.2C479.091 1233.76 475.629 1236.65 471.359 1236.65Z" fill="#561269"/>
<path d="M486.814 1236.65C482.554 1236.65 479.092 1233.62 479.092 1229.9V1150.66C479.092 1146.93 482.554 1143.9 486.814 1143.9C491.084 1143.9 494.546 1146.93 494.546 1150.66V1229.9C494.546 1233.62 491.084 1236.65 486.814 1236.65Z" fill="#561269"/>
<path d="M517.722 1236.65C513.462 1236.65 510 1233.52 510 1229.66V1150.88C510 1147.02 513.462 1143.9 517.722 1143.9C521.993 1143.9 525.455 1147.02 525.455 1150.88V1229.66C525.455 1233.52 521.993 1236.65 517.722 1236.65Z" fill="#561269"/>
<path d="M1043.19 1236.65C1038.92 1236.65 1035.46 1233.43 1035.46 1229.46V1135.62C1035.46 1131.66 1038.92 1128.44 1043.19 1128.44C1047.46 1128.44 1050.91 1131.66 1050.91 1135.62V1229.46C1050.91 1233.43 1047.46 1236.65 1043.19 1236.65Z" fill="#561269"/>
<path d="M1058.64 1221.19C1054.37 1221.19 1050.91 1218.21 1050.91 1214.54V1166.03C1050.91 1162.34 1054.37 1159.36 1058.64 1159.36C1062.91 1159.36 1066.36 1162.34 1066.36 1166.03V1214.54C1066.36 1218.21 1062.91 1221.19 1058.64 1221.19Z" fill="#561269"/>
<path d="M1089.55 1236.65C1085.28 1236.65 1081.82 1233.76 1081.82 1230.2V1150.34C1081.82 1146.78 1085.28 1143.9 1089.55 1143.9C1093.81 1143.9 1097.27 1146.78 1097.27 1150.34V1230.2C1097.27 1233.76 1093.81 1236.65 1089.55 1236.65Z" fill="#561269"/>
<path d="M1105.01 1236.65C1100.74 1236.65 1097.27 1233.58 1097.27 1229.79V1150.77C1097.27 1146.98 1100.74 1143.9 1105.01 1143.9C1109.27 1143.9 1112.73 1146.98 1112.73 1150.77V1229.79C1112.73 1233.58 1109.27 1236.65 1105.01 1236.65Z" fill="#561269"/>
<mask id="mask4_350_21748" style="mask-type:luminance" maskUnits="userSpaceOnUse" x="1122" y="1125" width="15" height="120">
<path d="M1122.32 1125.75H1136.71V1244.31H1122.32V1125.75Z" fill="white"/>
</mask>
<g mask="url(#mask4_350_21748)">
<path d="M1129.77 1245.02C1126.06 1245.02 1123.05 1242.02 1123.05 1238.31V1132.45C1123.05 1128.75 1126.06 1125.75 1129.77 1125.75C1133.47 1125.75 1136.48 1128.75 1136.48 1132.45V1238.31C1136.48 1242.02 1133.47 1245.02 1129.77 1245.02Z" fill="#561269"/>
</g>
<path d="M1151.37 1221.19C1147.1 1221.19 1143.64 1218.06 1143.64 1214.2V1150.89C1143.64 1147.02 1147.1 1143.9 1151.37 1143.9C1155.63 1143.9 1159.09 1147.02 1159.09 1150.89V1214.2C1159.09 1218.06 1155.63 1221.19 1151.37 1221.19Z" fill="#561269"/>
<path d="M1197.72 1236.65C1193.46 1236.65 1190 1233.65 1190 1229.96V1135.13C1190 1131.44 1193.46 1128.44 1197.72 1128.44C1201.99 1128.44 1205.46 1131.44 1205.46 1135.13V1229.96C1205.46 1233.65 1201.99 1236.65 1197.72 1236.65Z" fill="#561269"/>
<path d="M1213.18 1205.74C1208.91 1205.74 1205.46 1202.7 1205.46 1198.96V1166.15C1205.46 1162.4 1208.91 1159.36 1213.18 1159.36C1217.45 1159.36 1220.91 1162.4 1220.91 1166.15V1198.96C1220.91 1202.7 1217.45 1205.74 1213.18 1205.74Z" fill="#561269"/>
<path d="M1244.09 1205.74C1239.82 1205.74 1236.37 1202.87 1236.37 1199.34V1181.2C1236.37 1177.67 1239.82 1174.82 1244.09 1174.82C1248.36 1174.82 1251.82 1177.67 1251.82 1181.2V1199.34C1251.82 1202.87 1248.36 1205.74 1244.09 1205.74Z" fill="#561269"/>
<path d="M1259.55 1205.74C1255.27 1205.74 1251.82 1202.87 1251.82 1199.34V1181.2C1251.82 1177.67 1255.27 1174.82 1259.55 1174.82C1263.82 1174.82 1267.27 1177.67 1267.27 1181.2V1199.34C1267.27 1202.87 1263.82 1205.74 1259.55 1205.74Z" fill="#561269"/>
<mask id="mask5_350_21748" style="mask-type:luminance" maskUnits="userSpaceOnUse" x="163" y="628" width="1310" height="458">
<path d="M1472.45 628.104H163.07V1086H1472.45V628.104Z" fill="white"/>
</mask>
<g mask="url(#mask5_350_21748)">
<mask id="mask6_350_21748" style="mask-type:luminance" maskUnits="userSpaceOnUse" x="164" y="654" width="292" height="315">
<path d="M164.418 654.473H455.64V968.524H164.418V654.473Z" fill="white"/>
</mask>
<g mask="url(#mask6_350_21748)">
<path d="M164.445 967.943V960.339C170.384 960.339 175.668 958.485 180.295 954.758C184.914 951.04 187.227 943.52 187.227 932.208V691.05C187.227 679.738 184.914 672.227 180.295 668.5C175.668 664.782 170.384 662.919 164.445 662.919V655.352H286.412V662.919C280.436 662.919 275.143 664.782 270.525 668.5C265.925 672.227 263.63 679.738 263.63 691.05V787.543C271.668 775.931 280.005 763.794 288.623 751.134C297.26 738.473 305.972 726.261 314.74 714.499C323.527 702.737 331.949 692.399 339.995 683.484C347.433 675.149 355.845 668.378 365.213 663.181C374.599 657.965 385.859 655.352 398.974 655.352C413.859 655.352 426.89 659.529 438.056 667.863C449.222 676.179 454.805 690.47 454.805 710.716C454.805 726.205 450.103 738.566 440.716 747.8C431.349 757.014 419.817 761.772 406.131 762.071C395.986 762.371 386.515 759.627 377.728 753.831C368.96 748.015 363.237 739.896 360.567 729.483C367.705 728.883 372.688 725.84 375.518 720.343C378.337 714.827 378.852 709.246 377.054 703.599C375.274 697.933 370.665 694.347 363.227 692.848C356.979 691.078 351.396 691.603 346.478 694.421C341.578 697.25 337.194 701.042 333.326 705.809C329.447 710.585 325.869 715.192 322.571 719.631L311.405 734.839L435.171 949.176C439.639 956.621 446.187 960.339 454.805 960.339V967.943H369.934C361.288 967.943 354.59 964.225 349.85 956.78L263.63 804.062V932.208C263.63 943.52 265.925 951.04 270.525 954.758C275.143 958.485 280.436 960.339 286.412 960.339V967.943H164.445Z" fill="#561269"/>
</g>
<path d="M632.585 967.945C626.608 967.945 621.315 966.016 616.697 962.139C612.098 958.272 609.803 950.827 609.803 939.814V929.101C599.358 941.612 586.543 951.22 571.358 957.906C556.163 964.602 540.238 967.945 523.583 967.945C500.651 967.945 483.227 962.139 471.311 950.527C459.395 938.915 453.438 925.374 453.438 909.885C453.438 896.203 456.707 884.6 463.255 875.086C469.822 865.553 478.243 857.284 488.51 850.288C498.777 843.274 509.793 836.944 521.559 831.297C533.325 825.631 544.641 819.9 555.508 814.103C566.374 808.288 575.526 801.658 582.974 794.213C591.311 785.897 595.039 778.471 594.14 771.925C593.259 765.361 589.465 760.294 582.749 756.717C576.051 753.149 568.098 751.66 558.88 752.26C543.686 752.859 532.81 756.586 526.243 763.422C519.695 770.268 517.231 777.638 518.861 785.523C520.51 793.417 525.803 799.748 534.749 804.514C530.871 811.06 524.388 815.817 515.302 818.786C506.234 821.764 498.112 823.093 490.946 822.794C481.728 822.494 473.166 819.975 465.278 815.227C457.381 810.461 453.438 803.016 453.438 792.902C453.438 784.268 456.257 776.973 461.906 771.026C467.573 765.061 474.871 760.369 483.789 756.942C492.725 753.524 502.412 750.93 512.829 749.151C523.264 747.353 533.175 746.154 542.543 745.555C551.929 744.955 559.901 744.656 566.449 744.656C576.885 744.656 588.426 745.555 601.072 747.353C613.737 749.132 625.803 752.4 637.269 757.167C648.735 761.943 658.187 768.648 665.634 777.282C673.072 785.897 676.8 797.051 676.8 810.732V932.21C676.8 943.522 679.105 951.042 683.732 954.76C688.35 958.487 693.634 960.341 699.582 960.341V967.945H632.585ZM600.847 776.345C600.847 784.689 597.784 792.733 591.667 800.469C585.568 808.213 579.545 814.918 573.606 820.584C564.36 828.928 555.789 836.747 547.901 844.033C540.032 851.328 533.634 859.447 528.716 868.381C523.789 877.296 521.184 888.458 520.885 901.869C520.585 915.859 524.154 927.172 531.601 935.806C539.039 944.421 548.285 948.729 559.33 948.729C570.046 948.729 579.198 946.06 586.796 940.713C594.383 935.347 600.116 928.277 603.995 919.511C607.863 910.727 609.803 901.41 609.803 891.567V820.584C609.803 801.236 606.814 786.487 600.847 776.345Z" fill="#561269"/>
<path d="M778.606 802.716V923.744C779.205 924.344 779.88 925.093 780.629 925.992C781.379 926.872 782.053 927.603 782.653 928.202C791.571 936.546 802.137 941.088 814.353 941.837C826.568 942.567 837.144 938.465 846.091 929.55C854.409 921.216 860.123 909.978 863.252 895.838C866.4 881.678 867.973 867.313 867.973 852.723C867.973 844.389 867.074 834.93 865.276 824.367C863.496 813.804 860.451 803.84 856.133 794.475C851.805 785.092 845.922 778.012 838.484 773.236C828.639 766.999 818.137 766.784 806.971 772.6C795.805 778.396 786.344 788.435 778.606 802.716ZM778.606 934.907V1029.11C778.606 1040.43 776.292 1048.01 771.674 1051.89C767.074 1055.76 761.791 1057.7 755.824 1057.7H688.826V1050.13C694.765 1050.13 700.049 1048.19 704.676 1044.32C709.295 1040.45 711.608 1033.01 711.608 1022V801.368C711.608 790.055 709.295 782.545 704.676 778.818C700.049 775.1 694.765 773.236 688.826 773.236V765.632C703.711 765.033 719.346 762.589 735.739 758.29C752.123 753.973 766.409 749.431 778.606 744.656V788.407C782.774 781.87 788.358 775.25 795.355 768.554C802.372 761.868 810.568 756.211 819.936 751.585C829.322 746.969 839.533 744.656 850.55 744.656C869.603 744.656 885.304 749.731 897.65 759.864C910.016 769.977 919.318 783.453 925.566 800.281C931.833 817.091 934.971 835.773 934.971 856.319C934.971 880.424 930.643 900.81 922.006 917.489C913.388 934.148 902.297 946.725 888.732 955.209C875.187 963.703 860.826 967.945 845.641 967.945C833.725 967.945 822.259 965.201 811.243 959.704C800.226 954.189 789.341 945.92 778.606 934.907Z" fill="#561269"/>
<path d="M980.054 677.23C989.59 677.23 997.562 680.507 1003.96 687.044C1010.35 693.59 1013.55 701.484 1013.55 710.718C1013.55 719.96 1010.35 727.855 1003.96 734.391C997.562 740.937 989.59 744.205 980.054 744.205C970.836 744.205 962.939 740.937 956.372 734.391C949.824 727.855 946.555 719.96 946.555 710.718C946.555 701.484 949.824 693.59 956.372 687.044C962.939 680.507 970.836 677.23 980.054 677.23ZM924.223 967.945V960.341C930.162 960.341 935.37 958.486 939.848 954.759C944.316 951.042 946.555 943.522 946.555 932.209V801.367C946.555 790.055 944.316 782.544 939.848 778.817C935.37 775.099 930.162 773.236 924.223 773.236V765.632C939.108 765.032 954.743 762.588 971.136 758.29C987.52 753.973 1001.66 749.431 1013.55 744.655V932.209C1013.55 943.522 1015.86 951.042 1020.48 954.759C1025.1 958.486 1030.39 960.341 1036.33 960.341V967.945H924.223Z" fill="#561269"/>
<path d="M1047.05 752.26H1024.71V744.656C1034.83 744.057 1045.85 741.313 1057.76 736.416C1069.68 731.499 1080.85 724.869 1091.26 716.525C1101.7 708.191 1109.3 698.657 1114.04 687.944V744.656H1149.79V752.26H1114.04V899.172C1114.04 931.34 1126.86 946.07 1152.49 943.373V951.427L1152.04 951.876C1142.79 956.652 1133.62 960.52 1124.54 963.489C1115.47 966.466 1106.31 967.946 1097.07 967.946C1082.48 967.946 1071.68 965.202 1064.7 959.705C1057.7 954.189 1053.01 946.52 1050.61 936.706C1048.23 926.873 1047.05 915.841 1047.05 903.63V752.26Z" fill="#561269"/>
<path d="M1364.21 812.081C1364.21 799.57 1360.7 789.006 1353.72 780.391C1346.72 771.757 1337.77 764.836 1326.89 759.639C1316.02 754.423 1304.7 750.63 1292.94 748.252C1281.19 745.854 1270.4 744.656 1260.56 744.656C1238.83 744.656 1218.87 749.282 1200.69 758.515C1182.52 767.73 1168.01 780.681 1157.15 797.36C1146.28 814.019 1140.85 833.675 1140.85 856.319C1140.85 878.045 1146.05 897.327 1156.47 914.155C1166.91 930.964 1180.99 944.14 1198.7 953.674C1216.41 963.188 1235.84 967.945 1257 967.945C1272.19 967.945 1286.85 965.426 1301 960.379C1315.13 955.312 1327.79 947.942 1338.95 938.278C1350.12 928.595 1358.53 916.74 1364.21 902.73L1359.75 899.172C1346.93 908.414 1334.72 913.705 1323.1 915.054C1311.49 916.384 1302.1 915.035 1294.96 911.008C1287.82 906.991 1284.55 901.709 1285.15 895.164C1285.74 888.327 1288.56 882.821 1293.61 878.644C1298.68 874.477 1304.41 871.134 1310.81 868.605C1317.23 866.058 1322.96 863.605 1328.01 861.226C1337.55 856.759 1345.97 850.654 1353.27 842.909C1360.55 835.174 1364.21 824.891 1364.21 812.081ZM1231.52 766.981C1240.46 758.946 1249.4 754.264 1258.32 752.934C1267.25 751.585 1275.07 752.999 1281.77 757.167C1288.49 761.343 1293.26 767.674 1296.09 776.158C1298.91 784.624 1298.68 794.663 1295.41 806.275C1293.91 811.95 1291.52 817.316 1288.26 822.382C1284.98 827.429 1281.71 832.486 1278.44 837.552C1269.19 852.142 1264.8 866.873 1265.25 881.753C1265.7 896.643 1274.11 909.004 1290.5 918.837C1273.21 918.238 1257.05 913.396 1242.02 904.303C1226.97 895.22 1216.33 882.044 1210.09 864.785C1206.21 853.772 1204.36 842.16 1204.51 829.948C1204.66 817.737 1207.03 806.125 1211.63 795.112C1216.25 784.099 1222.88 774.725 1231.52 766.981Z" fill="#561269"/>
<path d="M1352.57 967.944V960.34C1358.51 960.34 1363.71 958.485 1368.19 954.758C1372.66 951.041 1374.9 943.521 1374.9 932.208V691.051C1374.9 679.738 1372.66 672.228 1368.19 668.501C1363.71 664.783 1358.51 662.92 1352.57 662.92V655.353C1367.45 654.754 1383.09 652.3 1399.48 647.974C1415.86 643.657 1430 639.115 1441.9 634.339V932.208C1441.9 943.521 1444.2 951.041 1448.83 954.758C1453.45 958.485 1458.73 960.34 1464.68 960.34V967.944H1352.57Z" fill="#561269"/>
</g>
<mask id="mask7_350_21748" style="mask-type:luminance" maskUnits="userSpaceOnUse" x="518" y="1119" width="521" height="143">
<path d="M1038.39 1119.56H518V1261H1038.39V1119.56Z" fill="white"/>
</mask>
<g mask="url(#mask7_350_21748)">
<path d="M554.008 1125.37H1000.33C1008.97 1125.37 1017.26 1128.79 1023.37 1134.91C1029.48 1141.01 1032.91 1149.3 1032.91 1157.94V1223.09C1032.91 1231.73 1029.48 1240.02 1023.37 1246.12C1017.26 1252.23 1008.97 1255.66 1000.33 1255.66H554.008C536.013 1255.66 521.418 1241.07 521.418 1223.09V1157.94C521.418 1139.95 536.013 1125.37 554.008 1125.37Z" fill="#EDE1D8"/>
<path d="M572.571 1187.04H588.421C592.393 1187.04 595.372 1186.16 597.376 1184.41C599.372 1182.67 600.374 1180.02 600.374 1176.47C600.374 1173.31 599.409 1170.88 597.489 1169.21C595.559 1167.51 592.636 1166.66 588.721 1166.66H572.571V1187.04ZM572.571 1218.73H564.627V1159.84H591.081C596.346 1159.84 600.58 1161.38 603.784 1164.45C607.006 1167.5 608.618 1171.48 608.618 1176.4C608.618 1181.49 607.062 1185.68 603.971 1188.95C600.87 1192.22 596.571 1193.85 591.081 1193.85H572.571V1218.73Z" fill="#561269"/>
<path d="M670.836 1189.28C670.836 1182.39 669.009 1176.69 665.365 1172.16C661.712 1167.62 656.691 1165.35 650.302 1165.35C644.007 1165.35 639.005 1167.62 635.314 1172.16C631.642 1176.69 629.806 1182.39 629.806 1189.28C629.806 1196.38 631.66 1202.15 635.389 1206.59C639.136 1211.04 644.101 1213.26 650.302 1213.26C656.372 1213.26 661.3 1211.1 665.103 1206.78C668.925 1202.43 670.836 1196.61 670.836 1189.28ZM679.005 1189.28C679.005 1198.08 676.466 1205.45 671.398 1211.38C666.321 1217.33 659.295 1220.3 650.302 1220.3C641.281 1220.3 634.237 1217.33 629.169 1211.38C624.12 1205.45 621.6 1198.08 621.6 1189.28C621.6 1180.47 624.12 1173.1 629.169 1167.18C634.237 1161.24 641.281 1158.27 650.302 1158.27C659.539 1158.27 666.639 1161.29 671.585 1167.33C676.532 1173.38 679.005 1180.7 679.005 1189.28Z" fill="#561269"/>
<path d="M704.178 1211.91H719.616C724.956 1211.91 729.143 1209.87 732.169 1205.76C735.185 1201.67 736.703 1196.06 736.703 1188.95C736.703 1181.93 735.176 1176.47 732.131 1172.58C729.077 1168.68 724.684 1166.71 718.942 1166.66H704.178V1211.91ZM696.234 1159.84H720.103C727.822 1159.84 733.864 1162.5 738.239 1167.82C742.604 1173.12 744.796 1179.99 744.796 1188.46C744.796 1197.52 742.604 1204.85 738.239 1210.41C733.864 1215.95 727.71 1218.73 719.766 1218.73H696.234V1159.84Z" fill="#561269"/>
<path d="M803.614 1177.56C802.733 1173.54 800.888 1170.51 798.068 1168.46C795.239 1166.39 791.595 1165.35 787.127 1165.35C781.328 1165.35 776.653 1167.44 773.112 1171.64C769.59 1175.84 767.829 1181.52 767.829 1188.68C767.829 1196.95 769.497 1203.12 772.85 1207.19C776.194 1211.23 781.028 1213.26 787.351 1213.26C791.52 1213.26 795.108 1211.87 798.105 1209.1C801.122 1206.33 803.145 1202.31 804.176 1197.04H811.932C810.883 1204.6 808.007 1210.37 803.314 1214.34C798.611 1218.31 792.897 1220.3 786.152 1220.3C778.105 1220.3 771.67 1217.55 766.855 1212.02C762.031 1206.48 759.623 1198.79 759.623 1188.95C759.623 1179.49 762.134 1172 767.155 1166.51C772.194 1161.02 778.855 1158.27 787.127 1158.27C793.965 1158.27 799.511 1160.05 803.763 1163.59C808.007 1167.11 810.527 1171.77 811.333 1177.56H803.614Z" fill="#561269"/>
<path d="M858.821 1194.53L850.127 1168.61H849.978L840.535 1194.53H858.821ZM838.099 1201.57L831.917 1218.73H823.748L845.893 1159.84H854.924L876.244 1218.73H867.551L861.706 1201.57H838.099Z" fill="#561269"/>
<path d="M926.212 1177.07C926.034 1173.33 924.619 1170.39 921.978 1168.27C919.355 1166.15 915.889 1165.08 911.598 1165.08C907.27 1165.08 903.954 1165.97 901.631 1167.74C899.308 1169.52 898.146 1172.08 898.146 1175.42C898.146 1177.22 898.643 1178.76 899.645 1180.03C900.666 1181.3 902.493 1182.26 905.116 1182.88L921.94 1186.74C926.483 1187.71 929.846 1189.58 932.02 1192.35C934.212 1195.13 935.317 1198.5 935.317 1202.47C935.317 1208.29 933.181 1212.72 928.91 1215.77C924.638 1218.78 919.074 1220.3 912.235 1220.3C907.036 1220.3 902.924 1219.63 899.907 1218.31C896.91 1216.96 894.249 1214.85 891.926 1211.95C889.603 1209.02 888.441 1204.94 888.441 1199.7H895.898C895.898 1204.07 897.341 1207.47 900.245 1209.88C903.167 1212.28 907.139 1213.48 912.16 1213.48C917.032 1213.48 920.816 1212.62 923.514 1210.9C926.231 1209.17 927.598 1206.73 927.598 1203.55C927.598 1200.66 926.783 1198.5 925.163 1197.07C923.561 1195.65 920.404 1194.4 915.683 1193.29L902.98 1190.33C898.755 1189.36 895.608 1187.69 893.537 1185.31C891.458 1182.91 890.427 1179.97 890.427 1176.47C890.427 1171.18 892.198 1166.83 895.748 1163.4C899.317 1159.98 904.301 1158.27 910.699 1158.27C917.893 1158.27 923.448 1159.78 927.373 1162.8C931.289 1165.8 933.406 1170.55 933.706 1177.07H926.212Z" fill="#561269"/>
<path d="M967.377 1166.88H947.555V1159.84H995.405V1166.88H975.358V1218.73H967.377V1166.88Z" fill="#561269"/>
</g>
</svg>
