<svg width="299" height="299" viewBox="0 0 299 299" fill="none" xmlns="http://www.w3.org/2000/svg">
<rect width="299" height="299" rx="20" fill="#ECE0D7"/>
<mask id="mask0_366_21074" style="mask-type:luminance" maskUnits="userSpaceOnUse" x="12" y="37" width="100" height="95">
<path d="M111.637 37H12V131.001H111.637V37Z" fill="white"/>
</mask>
<g mask="url(#mask0_366_21074)">
<path d="M35.9704 101.349C35.3078 101.497 34.5361 101.735 33.6553 102.067C32.7729 102.397 31.9727 102.791 31.253 103.247C30.5366 103.706 30.0518 104.176 29.7968 104.655C29.3539 105.464 29.3892 106.134 29.9042 106.667C30.4175 107.199 31.154 107.601 32.1119 107.875C33.0681 108.151 33.9321 108.29 34.7021 108.29H35.9704V101.349ZM38.3392 107.962C39.0773 107.962 40.052 107.777 41.2649 107.412C42.4762 107.045 43.7897 106.567 45.204 105.977C46.6215 105.39 47.9905 104.776 49.3107 104.132C50.6344 103.489 51.755 102.871 52.6727 102.281C53.5937 101.694 54.1842 101.237 54.4442 100.906C53.9292 100.906 53.3504 100.833 52.7062 100.685C52.062 100.541 51.4816 100.432 50.9682 100.356C50.0506 100.209 49.1967 100.108 48.4048 100.055C47.613 100.001 46.8497 99.9742 46.1166 99.9742C45.1234 99.9742 44.1118 100.028 43.0835 100.135C42.0534 100.246 40.916 100.393 39.6679 100.578C39.0773 100.648 38.7167 100.759 38.5875 100.906C38.4617 101.054 38.4348 101.275 38.507 101.57C38.5824 101.865 38.5824 102.323 38.507 102.945L38.3392 107.962ZM56.7056 99.4779C56.7056 99.4779 56.86 99.3572 57.1687 99.1157C57.4807 98.8777 57.8129 98.6295 58.1618 98.3713C58.5141 98.1165 58.7272 97.9706 58.7993 97.9354L61.5573 95.5612C61.7754 95.3768 61.9398 95.2393 62.0471 95.1454C62.1579 95.0548 62.3256 94.9375 62.5504 94.7899C62.8407 94.5703 63.2517 94.183 63.7851 93.6297C64.322 93.0797 64.8924 92.4644 65.4963 91.7853C66.1036 91.1063 66.674 90.4641 67.2075 89.8605C67.7393 89.2536 68.1167 88.8009 68.3415 88.5058C68.4841 88.323 68.6116 88.1688 68.724 88.043C68.8347 87.9139 68.9656 87.758 69.1132 87.5735C69.8463 86.6178 70.5711 85.58 71.2874 84.4616C72.0021 83.3399 72.6563 82.2652 73.2469 81.2357C74.24 79.5104 75.1207 77.5269 75.8908 75.2869C76.6641 73.0435 77.1959 70.7364 77.4878 68.3656C77.7831 65.9965 77.7563 63.7011 77.4073 61.4778C77.0584 59.2562 76.2682 57.2644 75.0385 55.5022C73.8072 53.7366 72.0339 52.3752 69.7172 51.4178C68.5764 50.9047 67.3987 50.556 66.1875 50.3716C64.9746 50.1888 63.7617 50.0966 62.5504 50.0966C60.8594 50.0966 59.1952 50.2441 57.5579 50.5392C55.9205 50.8343 54.3503 51.2015 52.8471 51.6391L47.3312 53.5706C46.1904 54.0854 45.3533 54.4626 44.8215 54.7041C44.288 54.9422 43.939 55.1987 43.7746 55.4753C43.6086 55.7486 43.4525 56.2332 43.3049 56.9307C42.9023 59.1355 42.5148 61.166 42.144 63.0204C41.7766 64.8764 41.4092 66.9438 41.0435 69.224C40.7113 71.2411 40.463 73.124 40.2986 74.8711C40.1326 76.6148 39.9229 78.4055 39.6679 80.2431L38.8962 91.7585C38.9314 93.7437 38.8844 95.2493 38.7552 96.2788C38.6244 97.3066 38.5422 97.9957 38.507 98.3445C38.47 98.6932 38.5808 98.8676 38.8358 98.8676C38.9834 98.8676 39.1663 98.8408 39.386 98.7871C39.6091 98.7335 39.9044 98.6865 40.2718 98.6463C41.228 98.5021 42.1474 98.4015 43.0298 98.3445C43.9105 98.2908 44.756 98.264 45.5663 98.264C47.0376 98.264 48.4803 98.3378 49.8946 98.4853C51.3071 98.6329 52.8237 98.8508 54.4442 99.1426C54.8469 99.218 55.2042 99.2918 55.5179 99.3639C55.8299 99.4393 56.2258 99.4779 56.7056 99.4779ZM44.4054 52.4707C44.8114 52.4707 45.1805 52.3802 45.5126 52.1958C45.8431 52.008 46.1921 51.8437 46.5595 51.6995L52.8471 49.3253C54.3503 48.8877 55.9205 48.5306 57.5579 48.2522C59.1952 47.9756 60.8409 47.8364 62.4967 47.8364C64.8857 47.8364 67.2175 48.1969 69.4957 48.9162C71.7773 49.6321 73.7636 50.8528 75.4546 52.5781C77.1054 54.2329 78.2965 56.1175 79.0312 58.2318C79.7694 60.3427 80.1469 62.5475 80.1653 64.8446C80.1821 67.1383 79.9338 69.3699 79.4205 71.5379C78.5028 75.4328 77.1892 78.932 75.4814 82.0338C73.7719 85.1373 71.6665 88.1604 69.1669 91.1013L67.5094 92.9188C67.2544 93.2491 66.8317 93.7169 66.2412 94.3205C65.654 94.9274 65.0668 95.5159 64.4763 96.0843C63.8892 96.6561 63.4496 97.0518 63.1544 97.2714C62.8222 97.5296 62.5001 97.7878 62.1881 98.0427C61.8744 98.3009 61.5539 98.5759 61.2285 98.8676C60.7487 99.1979 60.3628 99.4729 60.0676 99.6925C59.7723 99.9155 59.571 100.211 59.4636 100.578C60.0491 100.688 60.5994 100.947 61.1144 101.349C61.6277 101.751 61.9498 102.191 62.0807 102.67C62.2099 103.148 61.98 103.589 61.3895 103.992C61.0221 103.737 60.7923 103.489 60.6983 103.247C60.6078 103.009 60.3058 102.764 59.7924 102.509C58.8345 102.03 58.1551 101.792 57.7525 101.792C57.3851 101.792 57.0445 101.909 56.7325 102.147C56.4188 102.389 55.949 102.711 55.3233 103.113C54.2932 103.774 53.1088 104.471 51.7668 105.205C50.4247 105.943 49.0557 106.622 47.66 107.244C46.2642 107.87 44.9775 108.366 43.8015 108.733C43.4341 108.881 42.9023 109.055 42.2044 109.256C41.5065 109.457 40.7969 109.632 40.0772 109.779C39.3609 109.927 38.7636 110.017 38.2855 110.054L38.507 114.467C38.5422 114.65 38.4684 114.824 38.2855 114.99C38.101 115.155 37.8829 115.239 37.6279 115.239C37.4031 115.239 37.1816 115.146 36.9636 114.964C36.7438 114.779 36.5425 114.449 36.3596 113.971C36.2472 113.564 36.1818 113.213 36.165 112.918C36.1466 112.626 36.1197 112.261 36.0845 111.818C36.0073 111.121 35.9234 110.671 35.8295 110.47C35.7389 110.269 35.5846 110.168 35.3665 110.168C35.2188 110.168 35.0611 110.177 34.8967 110.195C34.7307 110.212 34.5176 110.222 34.2592 110.222C33.454 110.222 32.5347 110.056 31.5013 109.726C30.4712 109.394 29.5821 108.908 28.8305 108.264C28.0789 107.62 27.7032 106.822 27.7032 105.869C27.7032 104.657 28.032 103.683 28.6896 102.945C29.3506 102.211 30.1609 101.632 31.1188 101.208C32.075 100.787 33.0128 100.43 33.9304 100.135C34.8514 99.8434 35.5879 99.5685 36.1382 99.3102C36.1382 98.2808 36.165 97.3267 36.2187 96.4465C36.2724 95.5646 36.2992 94.6457 36.2992 93.69C36.2992 92.8081 36.363 91.8725 36.4938 90.8799C36.623 89.8873 36.6884 88.9518 36.6884 88.0698C36.6884 87.1896 36.732 86.0344 36.8226 84.6025C36.9166 83.1672 37.0458 81.5962 37.2118 79.8877C37.3762 78.1758 37.5507 76.4656 37.7353 74.7571C37.9181 73.0502 38.101 71.4892 38.2855 70.0758C38.4684 68.664 38.6344 67.5524 38.7821 66.7426L40.7684 57.0447C40.1409 57.3767 39.3407 57.873 38.366 58.5336C37.3947 59.1908 36.3747 59.9252 35.3061 60.7334C34.2408 61.5432 33.2393 62.343 32.2998 63.1344C31.3637 63.9224 30.6222 64.5897 30.0719 65.1397L26.4349 69.0027C25.2941 70.2871 24.0527 71.8464 22.7106 73.684C21.3685 75.5216 20.0902 77.4699 18.8789 79.5255C17.666 81.5828 16.6645 83.6132 15.8727 85.6152C15.0808 87.6188 14.6849 89.4481 14.6849 91.1013C14.6849 91.9815 14.794 92.6052 15.0137 92.9724C15.2369 93.3379 15.4935 93.566 15.7854 93.6565C16.0807 93.7504 16.3458 93.8242 16.584 93.8778C16.8255 93.9348 16.9832 94.1293 17.0604 94.4613C17.1678 94.9744 16.8725 95.2326 16.1746 95.2326C15.5875 95.2326 14.908 94.9107 14.1347 94.2668C13.3663 93.623 12.9805 92.5667 12.9805 91.1013C12.9805 89.8505 13.1935 88.4991 13.618 87.0504C14.039 85.5984 14.5675 84.1464 15.2083 82.6978C15.8525 81.2458 16.5404 79.8676 17.2751 78.5665C18.0133 77.262 18.6944 76.1487 19.3218 75.2265C20.5331 73.3889 21.699 71.7826 22.818 70.4044C23.9403 69.0279 25.1079 67.6983 26.3208 66.4139C27.532 65.1263 28.8926 63.7296 30.4007 62.2223C31.7965 61.0117 33.2091 59.8347 34.6417 58.6946C36.0778 57.5544 37.5876 56.5082 39.1713 55.5558C39.7215 55.2607 40.2349 54.9774 40.7147 54.7041C41.1928 54.4274 41.5032 54.1055 41.6474 53.7383C41.9058 53.2252 42.1188 52.729 42.2849 52.2494C42.4493 51.7716 42.8637 51.458 43.5264 51.3105C43.8921 51.4949 44.1303 51.6156 44.2377 51.6727C44.3484 51.7263 44.4054 51.9929 44.4054 52.4707Z" fill="#561269"/>
<path d="M80.9653 81.4572C81.6632 81.0917 82.4349 80.5854 83.2804 79.9415C84.1259 79.2977 84.5856 78.5365 84.6627 77.6545C84.1829 77.7266 83.6763 77.9832 83.1395 78.4258C82.606 78.8651 82.148 79.3614 81.7638 79.9147C81.378 80.4646 81.1129 80.9794 80.9653 81.4572ZM78.4824 82.7784C78.4824 81.863 78.7844 80.8721 79.3883 79.8074C79.9956 78.7393 80.7505 77.8289 81.6497 77.0778C82.5523 76.3233 83.4448 75.9443 84.3272 75.9443C85.5384 75.9443 86.1726 76.4054 86.2263 77.3259C86.2833 78.2431 85.8907 79.234 85.0452 80.297C84.6023 80.7765 83.9397 81.3281 83.0589 81.9535C82.1765 82.5756 81.3142 82.9243 80.4687 82.9998C80.4687 83.5866 80.4855 84.1097 80.5224 84.5691C80.5576 85.0302 80.8143 85.4997 81.2941 85.9775C81.7722 86.452 82.3778 86.6884 83.1126 86.6884C84.0689 86.6884 85.062 86.3866 86.0921 85.783C87.1204 85.1761 87.9106 84.6697 88.4608 84.2673C88.684 84.0846 88.8584 83.937 88.9842 83.8247C89.1134 83.714 89.2694 83.5866 89.454 83.4424C90.2274 82.8522 90.7155 82.4213 90.9169 82.148C91.1182 81.8714 91.2926 81.6886 91.4403 81.5981C91.5879 81.5042 91.9368 81.4572 92.4871 81.4572C92.5626 81.8596 92.5911 82.1346 92.5743 82.2822C92.5559 82.4297 92.4166 82.651 92.1583 82.9461C91.4956 83.6034 90.6585 84.3545 89.6486 85.1996C88.637 86.0446 87.5516 86.7807 86.394 87.4061C85.2398 88.0331 84.0923 88.345 82.9516 88.345C82.3611 88.345 81.7991 88.2444 81.2673 88.0432C80.7338 87.8386 80.2288 87.4983 79.7507 87.0238C79.088 86.3632 78.7106 85.6824 78.6166 84.9849C78.526 84.2841 78.4824 83.548 78.4824 82.7784Z" fill="#561269"/>
<path d="M74.8984 66.8498C74.8984 66.372 75.3396 65.8673 76.2204 65.3341C77.1028 64.8026 78.2134 64.2795 79.5555 63.7647C80.8976 63.2517 82.3135 62.7655 83.8032 62.3094C85.2929 61.85 86.6652 61.4543 87.9167 61.1223C89.1648 60.792 90.1009 60.5355 90.7216 60.351C91.495 60.128 92.0386 59.9989 92.3523 59.9621C92.6643 59.9268 92.8656 59.8078 92.9562 59.6066C93.0502 59.402 93.1508 58.9879 93.2582 58.3659C93.5534 56.8602 93.8923 55.8224 94.2782 55.254C94.6674 54.6822 95.0448 54.3955 95.4122 54.3955C95.7025 54.3955 95.9491 54.5531 96.1504 54.865C96.355 55.1785 96.4591 55.5541 96.4591 55.9917C96.4591 56.3237 96.4389 56.4612 96.3987 56.4075C96.3618 56.3539 96.3651 56.4746 96.4054 56.7697C96.4054 56.8418 96.4138 56.934 96.4322 57.0446C96.449 57.152 96.4591 57.2978 96.4591 57.4806C96.4591 57.9601 96.3668 58.1982 96.1839 58.1982C95.9994 58.1982 95.8165 58.2284 95.6337 58.2854C95.4491 58.339 95.3585 58.6593 95.3585 59.2444C95.7964 59.2444 96.2812 59.1824 96.8147 59.0567C97.3465 58.9276 97.8162 58.8454 98.2239 58.8085C99.8378 58.5134 101.453 58.2485 103.069 58.0104C104.688 57.769 106.344 57.6483 108.035 57.6483C108.92 57.6483 109.565 57.8327 109.967 58.1982C110.37 58.5654 110.514 58.9343 110.403 59.3048C110.296 59.672 109.893 59.8548 109.195 59.8548C109.123 59.5597 109.076 59.4222 109.055 59.4389C109.036 59.4574 108.862 59.4306 108.531 59.3585C108.387 59.3182 108.095 59.2981 107.652 59.2981C106.877 59.2981 105.855 59.3819 104.585 59.5462C103.319 59.7122 102.005 59.9067 100.646 60.1297C99.2858 60.3494 98.0729 60.559 97.0093 60.7602C95.944 60.9614 95.2461 61.1005 94.9157 61.176L93.8084 72.47C93.7715 72.7299 93.7631 73.0066 93.7816 73.3017C93.7984 73.5934 93.8084 73.8851 93.8084 74.1802C93.8084 74.5474 93.7816 74.7872 93.7279 74.8978C93.6742 75.0102 93.6474 75.2667 93.6474 75.6691C93.6474 76.4789 93.6642 77.4061 93.7011 78.4524C93.7363 79.4986 93.7178 80.3169 93.6474 80.907C93.6105 81.239 93.582 81.8912 93.5602 82.8654C93.5417 83.8362 93.5232 84.9646 93.5065 86.2523C93.488 87.5366 93.4796 88.831 93.4796 90.1354C93.4796 91.4399 93.4796 92.6253 93.4796 93.69C93.4796 94.753 93.4964 95.5243 93.5333 96.0038C93.5333 96.4062 93.5769 97.0199 93.6675 97.8481C93.7615 98.6747 93.7816 99.4192 93.7279 100.081C93.6742 100.742 93.4075 101.074 92.9294 101.074C92.2315 101.074 91.8087 100.687 91.6611 99.9138C91.5135 99.1442 91.4397 98.4283 91.4397 97.7676C91.3273 96.4431 91.2618 94.8989 91.2451 93.1333C91.2266 91.3728 91.2266 89.6106 91.2451 87.8485C91.2618 86.0829 91.2719 84.5404 91.2719 83.2208L91.4397 80.6254C91.4397 80.1123 91.4397 79.3226 91.4397 78.2579C91.4397 77.1949 91.4564 76.0648 91.4933 74.871C91.5336 73.6772 91.5705 72.584 91.6074 71.5915C91.6426 70.5989 91.6963 69.9014 91.7685 69.499C91.844 69.1284 91.8909 68.6858 91.9094 68.171C91.9262 67.658 91.953 67.217 91.9899 66.8498L92.4865 61.7259C92.3389 61.7628 92.0168 61.8366 91.5202 61.9472C91.027 62.0596 90.6344 62.1518 90.3391 62.2222C88.5374 62.6649 86.8195 63.1343 85.1855 63.6306C83.5482 64.1236 81.8672 64.7003 80.1393 65.3609C79.8088 65.5085 79.5051 65.6661 79.2267 65.8304C78.9499 65.9964 78.6462 66.1523 78.314 66.2999C77.8762 66.4843 77.5927 66.6134 77.4618 66.6889C77.3326 66.761 77.2672 66.8532 77.2672 66.9638C77.2672 67.0711 77.1766 67.3092 76.9921 67.6747C76.8445 67.715 76.7002 67.7452 76.5559 67.7619C76.4083 67.7804 76.2439 67.7888 76.0593 67.7888C75.7641 67.7888 75.499 67.725 75.2608 67.5943C75.0192 67.4652 74.8984 67.217 74.8984 66.8498Z" fill="#561269"/>
</g>
<mask id="mask1_366_21074" style="mask-type:luminance" maskUnits="userSpaceOnUse" x="60" y="90" width="226" height="79">
<path d="M286 90.2246H60.959V168.773H286V90.2246Z" fill="white"/>
</mask>
<g mask="url(#mask1_366_21074)">
<path d="M61.3867 110.88C61.3867 107.586 62.145 104.883 63.6616 102.772C65.1815 100.663 67.1258 99.028 69.4929 97.8694C71.8634 96.7125 74.3613 95.9144 76.9885 95.4751C79.6139 95.0375 82.0347 94.8179 84.2492 94.8179C85.5912 94.8179 87.2521 94.8833 89.235 95.0124C91.2163 95.1431 93.2747 95.4265 95.4086 95.8641C97.5459 96.3034 99.5557 96.9472 101.435 97.7956C103.317 98.6407 104.838 99.7858 105.998 101.229C107.155 102.67 107.736 104.445 107.736 106.555C107.736 108.201 107.348 109.551 106.575 110.605C105.8 111.662 104.82 112.435 103.636 112.926C102.455 113.414 101.247 113.682 100.012 113.731C99.0322 113.731 97.9351 113.59 96.7239 113.308C95.516 113.027 94.3836 112.554 93.3284 111.886C92.2715 111.216 91.4595 110.364 90.8925 109.331C92.2295 108.818 93.1422 108.022 93.6303 106.944C94.1219 105.862 94.3953 104.756 94.449 103.624C94.4977 102.44 94.0833 101.268 93.2076 100.109C92.3352 98.9525 91.1005 98.0002 89.5034 97.2524C87.9063 96.5063 86.0509 96.1324 83.9405 96.1324C81.622 96.1324 79.5619 96.5851 77.7602 97.4871C75.9567 98.3858 74.566 99.5444 73.5863 100.961C72.6099 102.375 72.1603 103.892 72.2375 105.515C72.318 107.135 73.0645 108.666 74.4788 110.109C75.8964 111.549 78.0974 112.731 81.0818 113.657C83.1436 114.328 85.3849 114.998 87.8057 115.669C90.2248 116.336 92.6053 117.108 94.9456 117.983C97.2892 118.855 99.4282 119.948 101.361 121.262C103.293 122.573 104.838 124.17 105.998 126.051C107.155 127.929 107.736 130.206 107.736 132.878C107.736 136.175 106.974 138.864 105.454 140.946C103.933 143.031 101.975 144.652 99.5825 145.809C97.1886 146.967 94.6788 147.765 92.0534 148.203C89.4263 148.642 87.0306 148.86 84.8665 148.86C83.5278 148.86 81.8686 148.797 79.8874 148.666C77.9044 148.537 75.8443 148.255 73.7071 147.821C71.5681 147.383 69.56 146.739 67.6811 145.889C65.8022 145.041 64.2823 143.909 63.1247 142.496C61.9655 141.079 61.3867 139.315 61.3867 137.204C61.3867 134.682 62.1953 132.857 63.8159 131.725C65.4398 130.59 67.2047 129.998 69.1104 129.947C70.0901 129.894 71.1839 130.021 72.3918 130.33C73.6031 130.638 74.7489 131.114 75.8276 131.758C76.9096 132.402 77.7082 133.266 78.2232 134.347C76.9381 134.862 76.0373 135.673 75.5189 136.782C75.0039 137.887 74.722 139.005 74.6734 140.135C74.6734 141.32 75.0978 142.492 75.9484 143.649C76.7972 144.808 78.0185 145.76 79.6123 146.506C81.2093 147.254 83.0631 147.626 85.1752 147.626C87.492 147.626 89.5521 147.177 91.3555 146.278C93.1573 145.376 94.5497 144.218 95.5294 142.804C96.5091 141.387 96.9587 139.87 96.8782 138.25C96.801 136.627 96.0545 135.083 94.6369 133.616C93.2227 132.151 90.9965 130.952 87.96 130.021C85.8966 129.356 83.6687 128.7 81.2764 128.056C78.8825 127.412 76.5137 126.641 74.1701 125.742C71.8248 124.84 69.6875 123.744 67.7549 122.456C65.8257 121.168 64.2823 119.586 63.1247 117.708C61.9655 115.83 61.3867 113.555 61.3867 110.88Z" fill="#561269"/>
<path d="M118.849 148.86H107.26V147.546C108.288 147.546 109.189 147.227 109.964 146.587C110.737 145.943 111.125 144.642 111.125 142.683V100.995C111.125 99.0413 110.737 97.7419 109.964 97.098C109.189 96.4542 108.288 96.1323 107.26 96.1323V94.8178C109.837 94.7155 112.541 94.2913 115.373 93.5435C118.204 92.7974 120.649 92.0127 122.707 91.1895V124.388C124.254 122.64 125.824 120.917 127.418 119.217C129.015 117.518 130.547 116.014 132.015 114.703C133.481 113.389 134.756 112.423 135.839 111.806C136.715 111.341 137.631 110.967 138.584 110.686C139.537 110.401 140.527 110.257 141.557 110.257C143.771 110.257 145.687 110.877 147.308 112.114C148.932 113.348 149.744 115.432 149.744 118.365C149.744 120.632 149.061 122.434 147.697 123.771C146.331 125.109 144.645 125.828 142.637 125.93C141.142 125.984 139.752 125.573 138.463 124.696C137.178 123.821 136.331 122.61 135.92 121.068C137.051 120.965 137.809 120.503 138.195 119.679C138.579 118.858 138.644 118.087 138.389 117.366C138.183 116.799 137.745 116.323 137.074 115.937C136.407 115.548 135.558 115.508 134.524 115.816C133.548 116.125 132.417 116.796 131.129 117.828L145.496 142.838C146.167 143.921 146.861 144.975 147.583 146.003C148.302 147.033 149.307 147.546 150.596 147.546V148.86H138C137.024 148.86 136.202 148.515 135.531 147.821C134.86 147.123 134.242 146.339 133.679 145.467L122.707 126.473V143.998C122.707 145.903 122.32 147.19 121.546 147.861C120.776 148.528 119.877 148.86 118.849 148.86Z" fill="#561269"/>
<path d="M158.381 98.6006C159.978 98.6006 161.342 99.169 162.474 100.304C163.61 101.436 164.179 102.799 164.179 104.395C164.179 105.991 163.61 107.356 162.474 108.486C161.342 109.618 159.978 110.183 158.381 110.183C156.787 110.183 155.423 109.618 154.288 108.486C153.155 107.356 152.59 105.991 152.59 104.395C152.59 102.799 153.155 101.436 154.288 100.304C155.423 99.169 156.787 98.6006 158.381 98.6006ZM152.59 150.557V120.062C152.59 118.109 152.189 116.799 151.389 116.132C150.592 115.461 149.679 115.126 148.651 115.126V113.892C151.228 113.785 153.942 113.36 156.797 112.618C159.656 111.871 162.115 111.085 164.179 110.257V144.307C164.179 148.577 163.598 152.204 162.441 155.192C161.281 158.178 159.362 160.443 156.683 161.985C154.007 163.528 150.377 164.299 145.792 164.299C144.557 164.299 143.194 164.22 141.699 164.065C140.206 163.912 138.738 163.617 137.297 163.179C135.857 162.74 134.584 162.096 133.478 161.248C132.37 160.403 131.61 159.284 131.197 157.894C130.835 156.556 130.873 155.232 131.311 153.917C131.751 152.603 132.563 151.52 133.747 150.671C134.928 149.826 136.421 149.454 138.223 149.558C139.253 149.558 140.256 149.763 141.236 150.175C142.215 150.586 143.014 151.255 143.631 152.18C141.981 153.159 141.028 154.625 140.773 156.58C140.464 158.225 140.825 159.705 141.853 161.02C142.883 162.334 144.274 163.015 146.027 163.065C147.57 163.065 148.792 162.639 149.691 161.791C150.593 160.941 151.251 159.859 151.664 158.545C152.075 157.234 152.331 155.857 152.435 154.414C152.538 152.973 152.59 151.687 152.59 150.557Z" fill="#561269"/>
<path d="M167.728 137.74V120.062C167.728 118.108 167.341 116.809 166.568 116.165C165.793 115.521 164.892 115.199 163.863 115.199V113.891C166.44 113.784 169.144 113.36 171.976 112.617C174.808 111.871 177.252 111.085 179.311 110.256V135.735C179.311 138.619 179.978 140.628 181.317 141.758C182.659 142.889 184.345 143.29 186.377 142.958C188.412 142.623 190.41 141.761 192.369 140.369C192.78 140.061 193.191 139.766 193.604 139.484C194.015 139.199 194.399 138.901 194.758 138.592V120.062C194.758 118.108 194.371 116.809 193.597 116.165C192.827 115.521 191.928 115.199 190.9 115.199V113.891C193.471 113.784 196.174 113.36 199.006 112.617C201.841 111.871 204.289 111.085 206.347 110.256V142.683C206.347 144.642 206.745 145.943 207.541 146.586C208.342 147.227 209.256 147.546 210.286 147.546V148.86H198.697C197.667 148.86 196.753 148.528 195.953 147.861C195.156 147.19 194.758 145.902 194.758 143.998V140.135C193.215 141.266 191.708 142.348 190.242 143.381C188.774 144.41 187.32 145.311 185.88 146.083C184.283 146.907 182.699 147.576 181.129 148.089C179.559 148.604 177.975 148.86 176.378 148.86C173.855 148.86 171.986 148.384 170.775 147.432C169.567 146.479 168.757 145.155 168.346 143.454C167.933 141.756 167.728 139.851 167.728 137.74Z" fill="#561269"/>
<path d="M208.422 148.86V147.546C209.45 147.546 210.351 147.227 211.126 146.587C211.9 145.943 212.287 144.642 212.287 142.683V100.995C212.287 99.0413 211.9 97.7419 211.126 97.098C210.351 96.4542 209.45 96.1323 208.422 96.1323V94.8178C210.999 94.7155 213.703 94.2913 216.535 93.5435C219.367 92.7974 221.811 92.0127 223.869 91.1895V142.683C223.869 144.642 224.267 145.943 225.064 146.587C225.864 147.227 226.778 147.546 227.808 147.546V148.86H208.422Z" fill="#561269"/>
<path d="M229.662 111.571H225.797V110.256C227.545 110.154 229.449 109.68 231.507 108.835C233.569 107.986 235.502 106.841 237.305 105.401C239.107 103.957 240.421 102.309 241.244 100.458V110.256H247.425V111.571H241.244V136.969C241.244 142.527 243.459 145.076 247.888 144.615V146.003L247.814 146.084C246.217 146.907 244.633 147.576 243.063 148.089C241.493 148.604 239.909 148.86 238.312 148.86C235.789 148.86 233.92 148.384 232.709 147.432C231.501 146.479 230.69 145.155 230.279 143.455C229.867 141.756 229.662 139.851 229.662 137.74V111.571Z" fill="#561269"/>
<path d="M284.502 121.919C284.502 119.756 283.895 117.929 282.684 116.44C281.471 114.948 279.926 113.751 278.047 112.852C276.168 111.95 274.21 111.293 272.175 110.88C270.144 110.464 268.278 110.256 266.579 110.256C262.821 110.256 259.368 111.054 256.224 112.651C253.084 114.247 250.574 116.487 248.695 119.371C246.816 122.251 245.877 125.647 245.877 129.558C245.877 133.319 246.778 136.652 248.581 139.558C250.383 142.465 252.817 144.742 255.882 146.392C258.946 148.038 262.306 148.86 265.961 148.86C268.587 148.86 271.122 148.424 273.564 147.552C276.01 146.677 278.201 145.403 280.134 143.729C282.066 142.053 283.522 140.006 284.502 137.586L283.724 136.969C281.509 138.565 279.397 139.481 277.389 139.712C275.384 139.945 273.762 139.715 272.524 139.021C271.289 138.324 270.722 137.41 270.826 136.278C270.929 135.095 271.417 134.142 272.289 133.421C273.165 132.702 274.156 132.123 275.262 131.684C276.371 131.247 277.364 130.822 278.241 130.41C279.887 129.637 281.342 128.582 282.603 127.244C283.868 125.908 284.502 124.132 284.502 121.919ZM261.559 114.119C263.103 112.729 264.646 111.92 266.189 111.692C267.736 111.46 269.09 111.703 270.249 112.423C271.407 113.144 272.23 114.237 272.719 115.702C273.205 117.169 273.168 118.906 272.605 120.913C272.345 121.892 271.93 122.821 271.363 123.697C270.799 124.568 270.232 125.444 269.665 126.319C268.072 128.841 267.313 131.389 267.391 133.964C267.466 136.536 268.921 138.671 271.752 140.369C268.768 140.267 265.975 139.43 263.371 137.861C260.771 136.292 258.93 134.015 257.848 131.027C257.181 129.122 256.859 127.115 256.882 125.004C256.909 122.895 257.32 120.886 258.117 118.982C258.917 117.077 260.064 115.457 261.559 114.119Z" fill="#561269"/>
</g>
<mask id="mask2_366_21074" style="mask-type:luminance" maskUnits="userSpaceOnUse" x="55" y="246" width="3" height="7">
<path d="M55.4355 246.463H57.952V252.043H55.4355V246.463Z" fill="white"/>
</mask>
<g mask="url(#mask2_366_21074)">
<path d="M56.6992 251.876C56.0366 251.876 55.498 251.337 55.498 250.673V247.796C55.498 247.134 56.0366 246.596 56.6992 246.596C57.3635 246.596 57.9021 247.134 57.9021 247.796V250.673C57.9021 251.337 57.3635 251.876 56.6992 251.876Z" fill="#561269"/>
</g>
<path d="M60.4337 252.879C59.6708 252.879 59.0508 252.342 59.0508 251.681V248.544C59.0508 247.881 59.6708 247.344 60.4337 247.344C61.1985 247.344 61.8185 247.881 61.8185 248.544V251.681C61.8185 252.342 61.1985 252.879 60.4337 252.879Z" fill="#561269"/>
<path d="M68.7364 252.879C67.9716 252.879 67.3535 252.315 67.3535 251.619V248.602C67.3535 247.908 67.9716 247.344 68.7364 247.344C69.5012 247.344 70.1212 247.908 70.1212 248.602V251.619C70.1212 252.315 69.5012 252.879 68.7364 252.879Z" fill="#561269"/>
<path d="M71.5049 252.879C70.7396 252.879 70.1211 252.298 70.1211 251.582V245.875C70.1211 245.158 70.7396 244.576 71.5049 244.576C72.2703 244.576 72.8888 245.158 72.8888 245.875V251.582C72.8888 252.298 72.2703 252.879 71.5049 252.879Z" fill="#561269"/>
<mask id="mask3_366_21074" style="mask-type:luminance" maskUnits="userSpaceOnUse" x="75" y="238" width="3" height="22">
<path d="M75.1328 238.558H77.7096V259.786H75.1328V238.558Z" fill="white"/>
</mask>
<g mask="url(#mask3_366_21074)">
<path d="M76.406 259.913C75.7416 259.913 75.2031 259.375 75.2031 258.711V239.758C75.2031 239.096 75.7416 238.558 76.406 238.558C77.0703 238.558 77.6071 239.096 77.6071 239.758V258.711C77.6071 259.375 77.0703 259.913 76.406 259.913Z" fill="#561269"/>
</g>
<path d="M79.8086 252.879C79.0438 252.879 78.4238 252.253 78.4238 251.479V248.744C78.4238 247.972 79.0438 247.344 79.8086 247.344C80.5715 247.344 81.1915 247.972 81.1915 248.744V251.479C81.1915 252.253 80.5715 252.879 79.8086 252.879Z" fill="#561269"/>
<path d="M85.3438 252.879C84.579 252.879 83.959 252.352 83.959 251.702V245.751C83.959 245.101 84.579 244.576 85.3438 244.576C86.1067 244.576 86.7267 245.101 86.7267 245.751V251.702C86.7267 252.352 86.1067 252.879 85.3438 252.879Z" fill="#561269"/>
<path d="M88.1114 258.414C87.3465 258.414 86.7266 257.886 86.7266 257.233V240.223C86.7266 239.57 87.3465 239.041 88.1114 239.041C88.8743 239.041 89.4942 239.57 89.4942 240.223V257.233C89.4942 257.886 88.8743 258.414 88.1114 258.414Z" fill="#561269"/>
<path d="M96.4122 258.414C95.6493 258.414 95.0293 257.897 95.0293 257.26V242.961C95.0293 242.323 95.6493 241.808 96.4122 241.808C97.177 241.808 97.797 242.323 97.797 242.961V257.26C97.797 257.897 97.177 258.414 96.4122 258.414Z" fill="#561269"/>
<path d="M99.1797 258.414C98.4169 258.414 97.7969 257.872 97.7969 257.205V243.019C97.7969 242.35 98.4169 241.808 99.1797 241.808C99.9446 241.808 100.565 242.35 100.565 243.019V257.205C100.565 257.872 99.9446 258.414 99.1797 258.414Z" fill="#561269"/>
<path d="M104.715 258.414C103.952 258.414 103.332 257.854 103.332 257.163V243.057C103.332 242.366 103.952 241.808 104.715 241.808C105.48 241.808 106.1 242.366 106.1 243.057V257.163C106.1 257.854 105.48 258.414 104.715 258.414Z" fill="#561269"/>
<path d="M198.818 258.414C198.054 258.414 197.434 257.838 197.434 257.127V240.326C197.434 239.617 198.054 239.041 198.818 239.041C199.583 239.041 200.201 239.617 200.201 240.326V257.127C200.201 257.838 199.583 258.414 198.818 258.414Z" fill="#561269"/>
<path d="M201.586 255.647C200.821 255.647 200.201 255.113 200.201 254.455V245.769C200.201 245.11 200.821 244.576 201.586 244.576C202.351 244.576 202.969 245.11 202.969 245.769V254.455C202.969 255.113 202.351 255.647 201.586 255.647Z" fill="#561269"/>
<path d="M207.123 258.414C206.358 258.414 205.738 257.897 205.738 257.26V242.961C205.738 242.323 206.358 241.808 207.123 241.808C207.886 241.808 208.506 242.323 208.506 242.961V257.26C208.506 257.897 207.886 258.414 207.123 258.414Z" fill="#561269"/>
<path d="M209.889 258.415C209.124 258.415 208.504 257.865 208.504 257.186V243.037C208.504 242.359 209.124 241.809 209.889 241.809C210.652 241.809 211.272 242.359 211.272 243.037V257.186C211.272 257.865 210.652 258.415 209.889 258.415Z" fill="#561269"/>
<mask id="mask4_366_21074" style="mask-type:luminance" maskUnits="userSpaceOnUse" x="212" y="238" width="4" height="22">
<path d="M212.99 238.558H215.567V259.786H212.99V238.558Z" fill="white"/>
</mask>
<g mask="url(#mask4_366_21074)">
<path d="M214.324 259.913C213.66 259.913 213.121 259.375 213.121 258.711V239.758C213.121 239.096 213.66 238.558 214.324 238.558C214.987 238.558 215.525 239.096 215.525 239.758V258.711C215.525 259.375 214.987 259.913 214.324 259.913Z" fill="#561269"/>
</g>
<path d="M218.193 255.647C217.429 255.647 216.809 255.086 216.809 254.395V243.059C216.809 242.367 217.429 241.809 218.193 241.809C218.956 241.809 219.576 242.367 219.576 243.059V254.395C219.576 255.086 218.956 255.647 218.193 255.647Z" fill="#561269"/>
<path d="M226.494 258.414C225.731 258.414 225.111 257.878 225.111 257.215V240.238C225.111 239.577 225.731 239.041 226.494 239.041C227.259 239.041 227.879 239.577 227.879 240.238V257.215C227.879 257.878 227.259 258.414 226.494 258.414Z" fill="#561269"/>
<path d="M229.262 252.879C228.497 252.879 227.879 252.335 227.879 251.666V245.791C227.879 245.12 228.497 244.576 229.262 244.576C230.027 244.576 230.647 245.12 230.647 245.791V251.666C230.647 252.335 230.027 252.879 229.262 252.879Z" fill="#561269"/>
<path d="M234.797 252.879C234.032 252.879 233.414 252.367 233.414 251.734V248.487C233.414 247.855 234.032 247.344 234.797 247.344C235.562 247.344 236.182 247.855 236.182 248.487V251.734C236.182 252.367 235.562 252.879 234.797 252.879Z" fill="#561269"/>
<path d="M237.565 252.879C236.8 252.879 236.182 252.367 236.182 251.734V248.487C236.182 247.855 236.8 247.344 237.565 247.344C238.331 247.344 238.949 247.855 238.949 248.487V251.734C238.949 252.367 238.331 252.879 237.565 252.879Z" fill="#561269"/>
<mask id="mask5_366_21074" style="mask-type:luminance" maskUnits="userSpaceOnUse" x="41" y="149" width="235" height="83">
<path d="M275.692 149.458H41.2031V231.441H275.692V149.458Z" fill="white"/>
</mask>
<g mask="url(#mask5_366_21074)">
<mask id="mask6_366_21074" style="mask-type:luminance" maskUnits="userSpaceOnUse" x="41" y="154" width="53" height="57">
<path d="M41.4434 154.179H93.5968V210.408H41.4434V154.179Z" fill="white"/>
</mask>
<g mask="url(#mask6_366_21074)">
<path d="M41.4473 210.304V208.942C42.5109 208.942 43.457 208.61 44.2858 207.943C45.1128 207.277 45.5272 205.931 45.5272 203.906V160.728C45.5272 158.702 45.1128 157.358 44.2858 156.69C43.457 156.025 42.5109 155.691 41.4473 155.691V154.336H63.2897V155.691C62.2194 155.691 61.2716 156.025 60.4445 156.69C59.6208 157.358 59.2098 158.702 59.2098 160.728V178.004C60.6492 175.925 62.1422 173.752 63.6856 171.485C65.2324 169.219 66.7926 167.032 68.3628 164.926C69.9364 162.82 71.4446 160.969 72.8856 159.373C74.2177 157.881 75.7241 156.669 77.4018 155.738C79.0827 154.804 81.0992 154.336 83.4479 154.336C86.1136 154.336 88.4471 155.084 90.4468 156.576C92.4465 158.065 93.4464 160.624 93.4464 164.249C93.4464 167.022 92.6042 169.235 90.9233 170.889C89.2457 172.538 87.1805 173.39 84.7295 173.444C82.9127 173.497 81.2166 173.006 79.643 171.968C78.0728 170.927 77.0478 169.473 76.5697 167.609C77.848 167.502 78.7405 166.957 79.2471 165.973C79.7521 164.985 79.8444 163.986 79.5223 162.975C79.2035 161.96 78.3781 161.318 77.0461 161.05C75.9271 160.733 74.9273 160.827 74.0465 161.331C73.1692 161.838 72.384 162.517 71.6912 163.37C70.9967 164.225 70.3558 165.05 69.7653 165.845L67.7656 168.568L89.9301 206.944C90.7304 208.277 91.903 208.942 93.4464 208.942V210.304H78.2473C76.6988 210.304 75.4994 209.638 74.6505 208.305L59.2098 180.962V203.906C59.2098 205.931 59.6208 207.277 60.4445 207.943C61.2716 208.61 62.2194 208.942 63.2897 208.942V210.304H41.4473Z" fill="#561269"/>
</g>
<path d="M125.284 210.304C124.213 210.304 123.266 209.959 122.439 209.265C121.615 208.572 121.204 207.239 121.204 205.268V203.349C119.333 205.589 117.038 207.31 114.319 208.507C111.598 209.706 108.746 210.304 105.763 210.304C101.656 210.304 98.536 209.265 96.402 207.186C94.2681 205.107 93.2012 202.682 93.2012 199.909C93.2012 197.459 93.7867 195.382 94.9593 193.678C96.1353 191.972 97.6435 190.491 99.4821 189.239C101.321 187.983 103.294 186.849 105.401 185.838C107.508 184.824 109.534 183.798 111.48 182.76C113.426 181.719 115.065 180.532 116.399 179.199C117.892 177.71 118.56 176.38 118.399 175.208C118.241 174.033 117.562 173.126 116.359 172.485C115.159 171.846 113.735 171.58 112.084 171.687C109.363 171.794 107.416 172.462 106.24 173.686C105.067 174.911 104.626 176.231 104.918 177.643C105.213 179.056 106.161 180.19 107.763 181.043C107.068 182.215 105.907 183.067 104.28 183.598C102.656 184.131 101.202 184.369 99.9183 184.316C98.2675 184.262 96.7342 183.811 95.3217 182.961C93.9074 182.108 93.2012 180.775 93.2012 178.964C93.2012 177.418 93.7061 176.112 94.7177 175.047C95.7327 173.979 97.0395 173.139 98.6366 172.525C100.237 171.913 101.972 171.449 103.837 171.13C105.706 170.809 107.481 170.594 109.159 170.487C110.84 170.379 112.267 170.326 113.44 170.326C115.309 170.326 117.376 170.487 119.64 170.809C121.908 171.127 124.069 171.712 126.123 172.566C128.176 173.421 129.869 174.621 131.202 176.167C132.534 177.71 133.202 179.707 133.202 182.156V203.906C133.202 205.931 133.615 207.278 134.443 207.943C135.271 208.611 136.217 208.943 137.282 208.943V210.304H125.284ZM119.6 176C119.6 177.493 119.051 178.934 117.956 180.319C116.864 181.705 115.785 182.906 114.722 183.92C113.066 185.414 111.531 186.814 110.118 188.119C108.709 189.425 107.563 190.878 106.682 192.478C105.8 194.074 105.334 196.073 105.28 198.474C105.226 200.979 105.865 203.004 107.199 204.55C108.531 206.092 110.187 206.864 112.165 206.864C114.084 206.864 115.723 206.386 117.084 205.428C118.442 204.468 119.469 203.202 120.164 201.632C120.857 200.06 121.204 198.391 121.204 196.629V183.92C121.204 180.456 120.669 177.815 119.6 176Z" fill="#561269"/>
<path d="M151.436 180.721V202.39C151.543 202.498 151.664 202.632 151.798 202.793C151.932 202.95 152.053 203.081 152.16 203.188C153.757 204.682 155.65 205.496 157.837 205.63C160.025 205.76 161.919 205.026 163.521 203.43C165.011 201.938 166.034 199.926 166.594 197.394C167.158 194.859 167.44 192.287 167.44 189.674C167.44 188.182 167.279 186.489 166.957 184.598C166.638 182.706 166.093 180.922 165.32 179.246C164.544 177.566 163.491 176.298 162.159 175.443C160.396 174.326 158.515 174.288 156.515 175.329C154.516 176.367 152.821 178.164 151.436 180.721ZM151.436 204.389V221.256C151.436 223.282 151.021 224.64 150.194 225.334C149.37 226.026 148.424 226.373 147.356 226.373H135.357V225.019C136.421 225.019 137.367 224.672 138.196 223.979C139.023 223.285 139.437 221.954 139.437 219.982V180.48C139.437 178.454 139.023 177.109 138.196 176.442C137.367 175.777 136.421 175.443 135.357 175.443V174.081C138.023 173.974 140.823 173.537 143.759 172.767C146.693 171.994 149.251 171.181 151.436 170.326V178.159C152.182 176.989 153.182 175.803 154.435 174.605C155.692 173.407 157.16 172.395 158.837 171.566C160.518 170.74 162.347 170.326 164.32 170.326C167.732 170.326 170.544 171.234 172.755 173.049C174.969 174.859 176.635 177.272 177.754 180.285C178.876 183.295 179.438 186.64 179.438 190.318C179.438 194.634 178.663 198.284 177.116 201.27C175.573 204.253 173.587 206.505 171.158 208.024C168.732 209.545 166.16 210.304 163.441 210.304C161.307 210.304 159.253 209.813 157.28 208.829C155.308 207.841 153.358 206.361 151.436 204.389Z" fill="#561269"/>
<path d="M187.51 158.253C189.218 158.253 190.646 158.84 191.792 160.011C192.936 161.183 193.509 162.596 193.509 164.249C193.509 165.904 192.936 167.318 191.792 168.488C190.646 169.66 189.218 170.245 187.51 170.245C185.859 170.245 184.445 169.66 183.269 168.488C182.097 167.318 181.511 165.904 181.511 164.249C181.511 162.596 182.097 161.183 183.269 160.011C184.445 158.84 185.859 158.253 187.51 158.253ZM177.512 210.304V208.943C178.575 208.943 179.508 208.611 180.31 207.943C181.11 207.278 181.511 205.931 181.511 203.906V180.479C181.511 178.454 181.11 177.109 180.31 176.442C179.508 175.776 178.575 175.443 177.512 175.443V174.081C180.177 173.974 182.977 173.536 185.913 172.767C188.847 171.994 191.379 171.181 193.509 170.325V203.906C193.509 205.931 193.922 207.278 194.751 207.943C195.578 208.611 196.524 208.943 197.589 208.943V210.304H177.512Z" fill="#561269"/>
<path d="M199.509 171.687H195.51V170.326C197.322 170.218 199.294 169.727 201.428 168.85C203.562 167.97 205.562 166.783 207.427 165.289C209.296 163.797 210.657 162.09 211.507 160.172V170.326H217.909V171.687H211.507V197.991C211.507 203.75 213.802 206.388 218.392 205.905V207.347L218.312 207.427C216.656 208.282 215.014 208.975 213.386 209.506C211.762 210.039 210.122 210.304 208.468 210.304C205.854 210.304 203.921 209.813 202.67 208.829C201.417 207.841 200.576 206.468 200.147 204.711C199.721 202.95 199.509 200.975 199.509 198.789V171.687Z" fill="#561269"/>
<path d="M256.308 182.398C256.308 180.158 255.68 178.266 254.429 176.724C253.175 175.178 251.573 173.939 249.624 173.008C247.678 172.074 245.651 171.395 243.544 170.97C241.441 170.54 239.508 170.326 237.746 170.326C233.854 170.326 230.279 171.154 227.023 172.807C223.77 174.457 221.172 176.776 219.226 179.762C217.28 182.745 216.307 186.264 216.307 190.318C216.307 194.208 217.239 197.66 219.105 200.673C220.974 203.683 223.495 206.042 226.668 207.749C229.838 209.452 233.319 210.304 237.109 210.304C239.828 210.304 242.454 209.853 244.987 208.949C247.519 208.042 249.785 206.723 251.785 204.993C253.784 203.259 255.291 201.136 256.308 198.628L255.509 197.991C253.214 199.646 251.026 200.593 248.946 200.834C246.866 201.072 245.185 200.831 243.907 200.11C242.627 199.391 242.041 198.445 242.149 197.273C242.256 196.049 242.761 195.063 243.665 194.316C244.573 193.569 245.599 192.971 246.745 192.518C247.894 192.062 248.921 191.623 249.825 191.197C251.533 190.397 253.041 189.304 254.348 187.917C255.653 186.532 256.308 184.691 256.308 182.398ZM232.546 174.323C234.146 172.884 235.747 172.046 237.344 171.808C238.944 171.566 240.345 171.82 241.545 172.566C242.747 173.314 243.601 174.447 244.108 175.966C244.613 177.482 244.573 179.279 243.987 181.358C243.719 182.374 243.291 183.335 242.705 184.242C242.118 185.146 241.533 186.051 240.947 186.958C239.292 189.571 238.505 192.208 238.585 194.872C238.666 197.538 240.172 199.751 243.108 201.512C240.011 201.404 237.117 200.538 234.425 198.91C231.731 197.283 229.825 194.924 228.708 191.834C228.013 189.862 227.681 187.783 227.708 185.597C227.735 183.41 228.159 181.331 228.983 179.36C229.81 177.388 230.997 175.709 232.546 174.323Z" fill="#561269"/>
<path d="M254.223 210.304V208.943C255.286 208.943 256.219 208.611 257.021 207.943C257.821 207.278 258.222 205.931 258.222 203.906V160.728C258.222 158.703 257.821 157.358 257.021 156.691C256.219 156.025 255.286 155.691 254.223 155.691V154.337C256.888 154.229 259.688 153.79 262.624 153.015C265.558 152.243 268.09 151.429 270.22 150.574V203.906C270.22 205.931 270.633 207.278 271.462 207.943C272.289 208.611 273.235 208.943 274.3 208.943V210.304H254.223Z" fill="#561269"/>
</g>
<mask id="mask7_366_21074" style="mask-type:luminance" maskUnits="userSpaceOnUse" x="104" y="237" width="94" height="26">
<path d="M197.96 237.449H104.766V262.774H197.96V237.449Z" fill="white"/>
</mask>
<g mask="url(#mask7_366_21074)">
<path d="M111.213 238.489H191.143C192.69 238.489 194.174 239.103 195.27 240.198C196.364 241.291 196.978 242.775 196.978 244.321V255.985C196.978 257.533 196.364 259.017 195.27 260.11C194.174 261.203 192.69 261.818 191.143 261.818H111.213C107.991 261.818 105.377 259.206 105.377 255.985V244.321C105.377 241.1 107.991 238.489 111.213 238.489Z" fill="#EDE1D8"/>
<path d="M114.538 249.531H117.376C118.088 249.531 118.621 249.375 118.98 249.061C119.337 248.749 119.517 248.275 119.517 247.639C119.517 247.073 119.344 246.638 119 246.338C118.655 246.035 118.131 245.882 117.43 245.882H114.538V249.531ZM114.538 255.205H113.115V244.662H117.853C118.796 244.662 119.554 244.937 120.128 245.487C120.705 246.033 120.993 246.746 120.993 247.626C120.993 248.538 120.715 249.288 120.161 249.873C119.606 250.46 118.836 250.751 117.853 250.751H114.538V255.205Z" fill="#561269"/>
<path d="M132.136 249.933C132.136 248.699 131.809 247.678 131.156 246.868C130.502 246.055 129.603 245.647 128.459 245.647C127.331 245.647 126.435 246.055 125.774 246.868C125.117 247.678 124.788 248.699 124.788 249.933C124.788 251.204 125.12 252.237 125.788 253.032C126.459 253.828 127.348 254.225 128.459 254.225C129.546 254.225 130.428 253.84 131.109 253.065C131.794 252.287 132.136 251.244 132.136 249.933ZM133.599 249.933C133.599 251.507 133.144 252.827 132.237 253.89C131.327 254.955 130.069 255.486 128.459 255.486C126.843 255.486 125.581 254.955 124.674 253.89C123.77 252.827 123.318 251.507 123.318 249.933C123.318 248.355 123.77 247.036 124.674 245.976C125.581 244.913 126.843 244.38 128.459 244.38C130.113 244.38 131.384 244.921 132.27 246.003C133.156 247.086 133.599 248.396 133.599 249.933Z" fill="#561269"/>
<path d="M138.106 253.984H140.871C141.827 253.984 142.577 253.618 143.119 252.884C143.659 252.151 143.931 251.147 143.931 249.873C143.931 248.617 143.657 247.639 143.112 246.942C142.565 246.244 141.778 245.892 140.75 245.882H138.106V253.984ZM136.684 244.662H140.958C142.34 244.662 143.423 245.138 144.206 246.09C144.988 247.039 145.38 248.27 145.38 249.786C145.38 251.409 144.988 252.72 144.206 253.716C143.423 254.708 142.32 255.205 140.898 255.205H136.684V244.662Z" fill="#561269"/>
<path d="M155.913 247.834C155.756 247.115 155.425 246.571 154.92 246.204C154.413 245.834 153.761 245.647 152.961 245.647C151.922 245.647 151.085 246.023 150.451 246.774C149.82 247.525 149.505 248.543 149.505 249.826C149.505 251.306 149.803 252.411 150.404 253.139C151.003 253.863 151.868 254.225 153.001 254.225C153.747 254.225 154.39 253.977 154.927 253.481C155.467 252.985 155.829 252.265 156.014 251.321H157.403C157.215 252.676 156.7 253.709 155.86 254.42C155.017 255.131 153.994 255.486 152.786 255.486C151.345 255.486 150.193 254.993 149.33 254.004C148.466 253.011 148.035 251.635 148.035 249.873C148.035 248.179 148.485 246.84 149.384 245.855C150.287 244.873 151.479 244.38 152.961 244.38C154.185 244.38 155.178 244.698 155.94 245.332C156.7 245.963 157.151 246.798 157.296 247.834H155.913Z" fill="#561269"/>
<path d="M165.8 250.872L164.244 246.231H164.217L162.526 250.872H165.8ZM162.09 252.133L160.982 255.205H159.52L163.485 244.662H165.103L168.921 255.205H167.364L166.317 252.133H162.09Z" fill="#561269"/>
<path d="M177.868 247.747C177.836 247.076 177.582 246.551 177.109 246.171C176.64 245.792 176.019 245.6 175.251 245.6C174.476 245.6 173.882 245.76 173.466 246.077C173.05 246.395 172.842 246.853 172.842 247.452C172.842 247.773 172.93 248.048 173.11 248.276C173.293 248.504 173.62 248.676 174.09 248.786L177.103 249.477C177.916 249.651 178.519 249.987 178.908 250.483C179.3 250.979 179.498 251.583 179.498 252.294C179.498 253.337 179.116 254.13 178.351 254.675C177.586 255.215 176.589 255.486 175.365 255.486C174.434 255.486 173.697 255.367 173.157 255.131C172.62 254.889 172.144 254.51 171.728 253.991C171.312 253.467 171.104 252.736 171.104 251.797H172.439C172.439 252.58 172.697 253.189 173.217 253.622C173.741 254.051 174.452 254.266 175.351 254.266C176.224 254.266 176.901 254.111 177.384 253.803C177.871 253.494 178.116 253.057 178.116 252.488C178.116 251.97 177.97 251.583 177.68 251.328C177.393 251.073 176.828 250.848 175.982 250.651L173.707 250.121C172.951 249.946 172.387 249.648 172.016 249.222C171.644 248.793 171.459 248.266 171.459 247.639C171.459 246.692 171.776 245.912 172.412 245.299C173.051 244.687 173.944 244.38 175.09 244.38C176.378 244.38 177.373 244.652 178.076 245.191C178.777 245.728 179.156 246.58 179.21 247.747H177.868Z" fill="#561269"/>
<path d="M185.241 245.922H181.691V244.662H190.261V245.922H186.671V255.205H185.241V245.922Z" fill="#561269"/>
</g>
</svg>
